<svg width="649" height="409" viewBox="0 0 649 409" fill="none" xmlns="http://www.w3.org/2000/svg">
<g clip-path="url(#clip0)" filter="url(#filter0_d)">
<rect width="641" height="401" transform="translate(4)" fill="#F7FAFC"/>
<rect x="4" width="720" height="24" fill="#394B59"/>
<rect x="4" y="24" width="720" height="24" fill="white"/>
<rect x="24" y="34" width="44" height="8" fill="#A3D7F7"/>
<rect x="80" y="34" width="44" height="8" fill="#A3D7F7"/>
<rect x="136" y="34" width="44" height="8" fill="#A3D7F7"/>
<g clip-path="url(#clip1)">
<rect x="12" y="56" width="699" height="180" fill="white"/>
<g clip-path="url(#clip2)">
<rect x="-15" y="52" width="40" height="34" stroke="#EBF1F5"/>
<rect x="25" y="52" width="40" height="34" stroke="#EBF1F5"/>
<rect x="65" y="52" width="40" height="34" stroke="#EBF1F5"/>
<rect x="105" y="52" width="40" height="34" stroke="#EBF1F5"/>
<rect x="145" y="52" width="40" height="34" stroke="#EBF1F5"/>
<rect x="185" y="52" width="40" height="34" stroke="#EBF1F5"/>
<rect x="225" y="52" width="40" height="34" stroke="#EBF1F5"/>
<rect x="265" y="52" width="40" height="34" stroke="#EBF1F5"/>
<rect x="305" y="52" width="40" height="34" stroke="#EBF1F5"/>
<rect x="345" y="52" width="40" height="34" stroke="#EBF1F5"/>
<rect x="385" y="52" width="40" height="34" stroke="#EBF1F5"/>
<rect x="425" y="52" width="40" height="34" stroke="#EBF1F5"/>
<rect x="465" y="52" width="40" height="34" stroke="#EBF1F5"/>
<rect x="505" y="52" width="40" height="34" stroke="#EBF1F5"/>
<rect x="545" y="52" width="40" height="34" stroke="#EBF1F5"/>
<rect x="585" y="52" width="40" height="34" stroke="#EBF1F5"/>
<rect x="625" y="52" width="40" height="34" stroke="#EBF1F5"/>
</g>
<g clip-path="url(#clip3)">
<rect x="-15" y="86" width="40" height="34" stroke="#EBF1F5"/>
<rect x="25" y="86" width="40" height="34" stroke="#EBF1F5"/>
<rect x="65" y="86" width="40" height="34" stroke="#EBF1F5"/>
<rect x="105" y="86" width="40" height="34" stroke="#EBF1F5"/>
<rect x="145" y="86" width="40" height="34" stroke="#EBF1F5"/>
<rect x="185" y="86" width="40" height="34" stroke="#EBF1F5"/>
<rect x="225" y="86" width="40" height="34" stroke="#EBF1F5"/>
<rect x="265" y="86" width="40" height="34" stroke="#EBF1F5"/>
<rect x="305" y="86" width="40" height="34" stroke="#EBF1F5"/>
<rect x="345" y="86" width="40" height="34" stroke="#EBF1F5"/>
<rect x="385" y="86" width="40" height="34" stroke="#EBF1F5"/>
<rect x="425" y="86" width="40" height="34" stroke="#EBF1F5"/>
<rect x="465" y="86" width="40" height="34" stroke="#EBF1F5"/>
<rect x="505" y="86" width="40" height="34" stroke="#EBF1F5"/>
<rect x="545" y="86" width="40" height="34" stroke="#EBF1F5"/>
<rect x="585" y="86" width="40" height="34" stroke="#EBF1F5"/>
<rect x="625" y="86" width="40" height="34" stroke="#EBF1F5"/>
</g>
<g clip-path="url(#clip4)">
<rect x="-15" y="120" width="40" height="34" stroke="#EBF1F5"/>
<rect x="25" y="120" width="40" height="34" stroke="#EBF1F5"/>
<rect x="65" y="120" width="40" height="34" stroke="#EBF1F5"/>
<rect x="105" y="120" width="40" height="34" stroke="#EBF1F5"/>
<rect x="145" y="120" width="40" height="34" stroke="#EBF1F5"/>
<rect x="185" y="120" width="40" height="34" stroke="#EBF1F5"/>
<rect x="225" y="120" width="40" height="34" stroke="#EBF1F5"/>
<rect x="265" y="120" width="40" height="34" stroke="#EBF1F5"/>
<rect x="305" y="120" width="40" height="34" stroke="#EBF1F5"/>
<rect x="345" y="120" width="40" height="34" stroke="#EBF1F5"/>
<rect x="385" y="120" width="40" height="34" stroke="#EBF1F5"/>
<rect x="425" y="120" width="40" height="34" stroke="#EBF1F5"/>
<rect x="465" y="120" width="40" height="34" stroke="#EBF1F5"/>
<rect x="505" y="120" width="40" height="34" stroke="#EBF1F5"/>
<rect x="545" y="120" width="40" height="34" stroke="#EBF1F5"/>
<rect x="585" y="120" width="40" height="34" stroke="#EBF1F5"/>
<rect x="625" y="120" width="40" height="34" stroke="#EBF1F5"/>
</g>
<g clip-path="url(#clip5)">
<rect x="-15" y="154" width="40" height="34" stroke="#EBF1F5"/>
<rect x="25" y="154" width="40" height="34" stroke="#EBF1F5"/>
<rect x="65" y="154" width="40" height="34" stroke="#EBF1F5"/>
<rect x="105" y="154" width="40" height="34" stroke="#EBF1F5"/>
<rect x="145" y="154" width="40" height="34" stroke="#EBF1F5"/>
<rect x="185" y="154" width="40" height="34" stroke="#EBF1F5"/>
<rect x="225" y="154" width="40" height="34" stroke="#EBF1F5"/>
<rect x="265" y="154" width="40" height="34" stroke="#EBF1F5"/>
<rect x="305" y="154" width="40" height="34" stroke="#EBF1F5"/>
<rect x="345" y="154" width="40" height="34" stroke="#EBF1F5"/>
<rect x="385" y="154" width="40" height="34" stroke="#EBF1F5"/>
<rect x="425" y="154" width="40" height="34" stroke="#EBF1F5"/>
<rect x="465" y="154" width="40" height="34" stroke="#EBF1F5"/>
<rect x="505" y="154" width="40" height="34" stroke="#EBF1F5"/>
<rect x="545" y="154" width="40" height="34" stroke="#EBF1F5"/>
<rect x="585" y="154" width="40" height="34" stroke="#EBF1F5"/>
<rect x="625" y="154" width="40" height="34" stroke="#EBF1F5"/>
</g>
<g clip-path="url(#clip6)">
<rect x="-15" y="188" width="40" height="34" stroke="#EBF1F5"/>
<rect x="25" y="188" width="40" height="34" stroke="#EBF1F5"/>
<rect x="65" y="188" width="40" height="34" stroke="#EBF1F5"/>
<rect x="105" y="188" width="40" height="34" stroke="#EBF1F5"/>
<rect x="145" y="188" width="40" height="34" stroke="#EBF1F5"/>
<rect x="185" y="188" width="40" height="34" stroke="#EBF1F5"/>
<rect x="225" y="188" width="40" height="34" stroke="#EBF1F5"/>
<rect x="265" y="188" width="40" height="34" stroke="#EBF1F5"/>
<rect x="305" y="188" width="40" height="34" stroke="#EBF1F5"/>
<rect x="345" y="188" width="40" height="34" stroke="#EBF1F5"/>
<rect x="385" y="188" width="40" height="34" stroke="#EBF1F5"/>
<rect x="425" y="188" width="40" height="34" stroke="#EBF1F5"/>
<rect x="465" y="188" width="40" height="34" stroke="#EBF1F5"/>
<rect x="505" y="188" width="40" height="34" stroke="#EBF1F5"/>
<rect x="545" y="188" width="40" height="34" stroke="#EBF1F5"/>
<rect x="585" y="188" width="40" height="34" stroke="#EBF1F5"/>
<rect x="625" y="188" width="40" height="34" stroke="#EBF1F5"/>
</g>
<g clip-path="url(#clip7)">
<rect x="-15" y="222" width="40" height="34" stroke="#EBF1F5"/>
<rect x="25" y="222" width="40" height="34" stroke="#EBF1F5"/>
<rect x="65" y="222" width="40" height="34" stroke="#EBF1F5"/>
<rect x="105" y="222" width="40" height="34" stroke="#EBF1F5"/>
<rect x="145" y="222" width="40" height="34" stroke="#EBF1F5"/>
<rect x="185" y="222" width="40" height="34" stroke="#EBF1F5"/>
<rect x="225" y="222" width="40" height="34" stroke="#EBF1F5"/>
<rect x="265" y="222" width="40" height="34" stroke="#EBF1F5"/>
<rect x="305" y="222" width="40" height="34" stroke="#EBF1F5"/>
<rect x="345" y="222" width="40" height="34" stroke="#EBF1F5"/>
<rect x="385" y="222" width="40" height="34" stroke="#EBF1F5"/>
<rect x="425" y="222" width="40" height="34" stroke="#EBF1F5"/>
<rect x="465" y="222" width="40" height="34" stroke="#EBF1F5"/>
<rect x="505" y="222" width="40" height="34" stroke="#EBF1F5"/>
<rect x="545" y="222" width="40" height="34" stroke="#EBF1F5"/>
<rect x="585" y="222" width="40" height="34" stroke="#EBF1F5"/>
<rect x="625" y="222" width="40" height="34" stroke="#EBF1F5"/>
</g>
<path opacity="0.8" d="M26 151.96L38.2684 153.36L42.0433 151.4L49.5931 160.08L68.4675 159.24L74.1299 162.6L77.9048 160.08L80.7359 157L96.7792 153.36L100.554 143.56L105.273 147.2L120.372 167.92L124.147 158.12L127.922 164.84L132.641 162.04L135.472 152.8L146.797 150.84L151.515 151.68L155.29 150.28L162.84 136L176.052 142.16L178.883 150L187.377 144.12L191.152 148.04L203.42 149.16L207.195 146.08L210.026 145.52L214.745 147.48L218.519 145.52L229.844 147.48L233.619 136.84L238.338 139.36L242.113 145.52L244.944 143.84L258.156 145.8L260.987 137.12L264.762 127.88L269.481 123.12L273.255 130.68L285.524 119.2L288.355 111.64L292.13 123.4L296.848 127.32L300.623 120.04L311.948 128.16L315.723 140.2L320.442 144.4L327.991 182.48L343.091 150H347.81L351.584 141.32L355.359 176.32L367.628 181.64L371.403 188.36L375.177 182.76L377.065 174.36L378.952 174.08L379.896 169.04L382.727 165.4L394.996 174.92L398.771 163.44L402.545 162.88L410.095 170.16L422.364 174.36L426.139 164L430.857 163.44L437.463 192L449.732 183.6L453.507 172.68L458.225 172.96L461.056 158.68L463.887 155.6L464.831 152.52L477.1 146.92L480.874 138.24L484.649 135.16L492.199 132.36L503.524 142.16L512.017 135.72L515.792 142.44L521.455 143.56L536.554 142.72L538.442 137.96L542.216 143.84L543.16 147.48L544.104 149.72L547.879 148.32L562.978 151.12L566.753 141.32L571.472 144.12L573.359 138.24L586.571 123.12L596.009 123.4L602.615 119.2L628.095 121.16L641.307 118.64L652.632 73L668.675 112.76L672.45 131.52L676.225 126.2L680 136.28" stroke="#F44E3B"/>
<path opacity="0.8" d="M26 154.474L42.0202 157.605L47.6744 163.013L64.6369 158.743L73.1182 165.29L78.7723 163.013L81.5994 156.466L96.6772 145.365H100.447L106.101 156.181L107.986 166.144L120.236 155.327L124.006 166.144L128.718 163.867L131.545 152.766L135.314 156.181L147.565 159.028L154.161 151.912L158.873 137.111L162.643 138.249L174.893 151.058L178.663 142.519L183.375 143.373L186.202 151.058L189.971 149.919L202.222 153.62L205.991 151.058L209.761 152.766L213.53 151.058L218.242 153.05L229.55 138.819L234.262 143.942L238.032 141.38L240.859 149.635L255.937 147.073L260.648 131.134L264.418 125.441L269.13 130.564L284.207 116.048L296.458 135.403L300.228 133.126L317.19 148.212L320.017 167.851L323.787 172.975L328.499 174.113L343.576 141.665L347.346 149.065L351.115 175.252L353.942 184.076L366.193 204L369.963 180.66L378.444 168.705L382.213 180.091L394.464 170.128H398.233L402.003 176.675L409.542 175.252L422.735 168.705L425.562 165.574L433.101 192.045H437.813L449.121 177.529L453.833 179.521L456.66 163.013L461.372 158.743L464.199 143.942L477.392 145.65L480.219 137.395L483.988 135.118L488.7 137.395L491.527 143.373L502.836 141.096L507.548 138.249L518.856 145.65L533.934 143.373L536.761 147.073L538.646 149.065L542.415 151.058L546.184 161.874L571.628 137.395L573.513 127.149L584.821 124.872L589.533 126.295L593.303 122.31L598.957 122.594L602.726 121.171L621.573 124.872L625.343 127.718L650.787 91L667.749 128.287L673.403 135.118L675.288 138.249L680 134.549" stroke="#2964CC"/>
<rect x="569" y="143" width="69" height="13" rx="3" fill="#394B59"/>
<rect x="572" y="145" width="9" height="8" fill="#F67162"/>
<rect x="604" y="145" width="9" height="8" fill="#5483D6"/>
</g>
<rect x="12" y="260" width="704" height="188" fill="white"/>
<rect width="704" height="21" transform="translate(12 260)" fill="white"/>
<rect x="24" y="268" width="5" height="5" fill="#A0AEC0"/>
<rect x="94" y="268" width="68" height="5" fill="#A0AEC0"/>
<rect x="49" y="268" width="25" height="5" fill="#137CBD"/>
<rect x="182" y="268" width="68" height="5" fill="#A0AEC0"/>
<rect x="270" y="268" width="68" height="5" fill="#A0AEC0"/>
<rect x="363" y="268" width="68" height="5" fill="#A0AEC0"/>
<rect x="451" y="268" width="68" height="5" fill="#A0AEC0"/>
<rect x="539" y="268" width="68" height="5" fill="#A0AEC0"/>
<rect x="632" y="268" width="68" height="5" fill="#A0AEC0"/>
<rect x="12" y="280" width="704" height="1" fill="#EDF2F7"/>
<rect width="704" height="21" transform="translate(12 281)" fill="white"/>
<rect x="24" y="289" width="5" height="5" fill="#A0AEC0"/>
<rect x="94" y="289" width="68" height="5" fill="#A0AEC0"/>
<rect x="49" y="289" width="25" height="5" fill="#137CBD"/>
<rect x="182" y="289" width="68" height="5" fill="#A0AEC0"/>
<rect x="270" y="289" width="68" height="5" fill="#A0AEC0"/>
<rect x="363" y="289" width="68" height="5" fill="#A0AEC0"/>
<rect x="451" y="289" width="68" height="5" fill="#A0AEC0"/>
<rect x="539" y="289" width="68" height="5" fill="#A0AEC0"/>
<rect x="632" y="289" width="68" height="5" fill="#A0AEC0"/>
<rect x="12" y="301" width="704" height="1" fill="#EDF2F7"/>
<rect width="704" height="21" transform="translate(12 302)" fill="white"/>
<rect x="24" y="310" width="5" height="5" fill="#A0AEC0"/>
<rect x="94" y="310" width="68" height="5" fill="#A0AEC0"/>
<rect x="49" y="310" width="25" height="5" fill="#137CBD"/>
<rect x="182" y="310" width="68" height="5" fill="#A0AEC0"/>
<rect x="270" y="310" width="68" height="5" fill="#A0AEC0"/>
<rect x="363" y="310" width="68" height="5" fill="#A0AEC0"/>
<rect x="451" y="310" width="68" height="5" fill="#A0AEC0"/>
<rect x="539" y="310" width="68" height="5" fill="#A0AEC0"/>
<rect x="632" y="310" width="68" height="5" fill="#A0AEC0"/>
<rect x="12" y="322" width="704" height="1" fill="#EDF2F7"/>
<rect width="704" height="21" transform="translate(12 323)" fill="white"/>
<rect x="24" y="331" width="5" height="5" fill="#A0AEC0"/>
<rect x="94" y="331" width="68" height="5" fill="#A0AEC0"/>
<rect x="49" y="331" width="25" height="5" fill="#137CBD"/>
<rect x="182" y="331" width="68" height="5" fill="#A0AEC0"/>
<rect x="270" y="331" width="68" height="5" fill="#A0AEC0"/>
<rect x="363" y="331" width="68" height="5" fill="#A0AEC0"/>
<rect x="451" y="331" width="68" height="5" fill="#A0AEC0"/>
<rect x="539" y="331" width="68" height="5" fill="#A0AEC0"/>
<rect x="632" y="331" width="68" height="5" fill="#A0AEC0"/>
<rect x="12" y="343" width="704" height="1" fill="#EDF2F7"/>
<rect width="704" height="21" transform="translate(12 344)" fill="white"/>
<rect x="24" y="352" width="5" height="5" fill="#A0AEC0"/>
<rect x="94" y="352" width="68" height="5" fill="#A0AEC0"/>
<rect x="49" y="352" width="25" height="5" fill="#137CBD"/>
<rect x="182" y="352" width="68" height="5" fill="#A0AEC0"/>
<rect x="270" y="352" width="68" height="5" fill="#A0AEC0"/>
<rect x="363" y="352" width="68" height="5" fill="#A0AEC0"/>
<rect x="451" y="352" width="68" height="5" fill="#A0AEC0"/>
<rect x="539" y="352" width="68" height="5" fill="#A0AEC0"/>
<rect x="632" y="352" width="68" height="5" fill="#A0AEC0"/>
<rect x="12" y="364" width="704" height="1" fill="#EDF2F7"/>
<rect width="704" height="21" transform="translate(12 365)" fill="white"/>
<rect x="24" y="373" width="5" height="5" fill="#A0AEC0"/>
<rect x="94" y="373" width="68" height="5" fill="#A0AEC0"/>
<rect x="49" y="373" width="25" height="5" fill="#137CBD"/>
<rect x="182" y="373" width="68" height="5" fill="#A0AEC0"/>
<rect x="270" y="373" width="68" height="5" fill="#A0AEC0"/>
<rect x="363" y="373" width="68" height="5" fill="#A0AEC0"/>
<rect x="451" y="373" width="68" height="5" fill="#A0AEC0"/>
<rect x="539" y="373" width="68" height="5" fill="#A0AEC0"/>
<rect x="632" y="373" width="68" height="5" fill="#A0AEC0"/>
<rect x="12" y="385" width="704" height="1" fill="#EDF2F7"/>
<rect width="704" height="21" transform="translate(12 386)" fill="white"/>
<rect x="24" y="394" width="5" height="5" fill="#A0AEC0"/>
<rect x="94" y="394" width="68" height="5" fill="#A0AEC0"/>
<rect x="49" y="394" width="25" height="5" fill="#137CBD"/>
<rect x="182" y="394" width="68" height="5" fill="#A0AEC0"/>
<rect x="270" y="394" width="68" height="5" fill="#A0AEC0"/>
<rect x="363" y="394" width="68" height="5" fill="#A0AEC0"/>
<rect x="451" y="394" width="68" height="5" fill="#A0AEC0"/>
<rect x="539" y="394" width="68" height="5" fill="#A0AEC0"/>
<rect x="632" y="394" width="68" height="5" fill="#A0AEC0"/>
</g>
<defs>
<filter id="filter0_d" x="0" y="0" width="649" height="409" filterUnits="userSpaceOnUse" color-interpolation-filters="sRGB">
<feFlood flood-opacity="0" result="BackgroundImageFix"/>
<feColorMatrix in="SourceAlpha" type="matrix" values="0 0 0 0 0 0 0 0 0 0 0 0 0 0 0 0 0 0 127 0"/>
<feOffset dy="4"/>
<feGaussianBlur stdDeviation="2"/>
<feColorMatrix type="matrix" values="0 0 0 0 0 0 0 0 0 0 0 0 0 0 0 0 0 0 0.25 0"/>
<feBlend mode="normal" in2="BackgroundImageFix" result="effect1_dropShadow"/>
<feBlend mode="normal" in="SourceGraphic" in2="effect1_dropShadow" result="shape"/>
</filter>
<clipPath id="clip0">
<rect width="641" height="401" fill="white" transform="translate(4)"/>
</clipPath>
<clipPath id="clip1">
<rect width="699" height="180" fill="white" transform="translate(12 56)"/>
</clipPath>
<clipPath id="clip2">
<rect width="1440" height="34" fill="white" transform="translate(-215 52)"/>
</clipPath>
<clipPath id="clip3">
<rect width="1440" height="34" fill="white" transform="translate(-215 86)"/>
</clipPath>
<clipPath id="clip4">
<rect width="1440" height="34" fill="white" transform="translate(-215 120)"/>
</clipPath>
<clipPath id="clip5">
<rect width="1440" height="34" fill="white" transform="translate(-215 154)"/>
</clipPath>
<clipPath id="clip6">
<rect width="1440" height="34" fill="white" transform="translate(-215 188)"/>
</clipPath>
<clipPath id="clip7">
<rect width="1440" height="34" fill="white" transform="translate(-215 222)"/>
</clipPath>
</defs>
</svg>
