<svg width="24" height="24" viewBox="0 0 24 24" xmlns="http://www.w3.org/2000/svg">
<path fill-rule="evenodd" clip-rule="evenodd" d="M16.4512 11.1481L9.25122 3.9481C9.03522 3.7321 8.73522 3.6001 8.39922 3.6001C7.73922 3.6001 7.19922 4.1401 7.19922 4.8001C7.19922 5.1361 7.33122 5.4361 7.54722 5.6521L13.9072 12.0001L7.55922 18.3481C7.33122 18.5641 7.19922 18.8641 7.19922 19.2001C7.19922 19.8601 7.73922 20.4001 8.39922 20.4001C8.73522 20.4001 9.03522 20.2681 9.25122 20.0521L16.4512 12.8521C16.6672 12.6361 16.7992 12.3361 16.7992 12.0001C16.7992 11.6641 16.6672 11.3641 16.4512 11.1481Z"/>
</svg>
