<svg width="676" height="408" viewBox="0 0 676 408" fill="none" xmlns="http://www.w3.org/2000/svg">
<g filter="url(#filter0_ddd_189_9515)">
<g clip-path="url(#clip0_189_9515)">
<rect x="24" y="16" width="628" height="360" rx="3" fill="white"/>
<g clip-path="url(#clip1_189_9515)">
<g clip-path="url(#clip2_189_9515)">
<rect x="-9" y="49" width="40" height="28" stroke="#E1E8ED"/>
<rect x="31" y="49" width="40" height="28" stroke="#E1E8ED"/>
<rect x="71" y="49" width="40" height="28" stroke="#E1E8ED"/>
<rect x="111" y="49" width="40" height="28" stroke="#E1E8ED"/>
<rect x="151" y="49" width="40" height="28" stroke="#E1E8ED"/>
<rect x="191" y="49" width="40" height="28" stroke="#E1E8ED"/>
<rect x="231" y="49" width="40" height="28" stroke="#E1E8ED"/>
<rect x="271" y="49" width="40" height="28" stroke="#E1E8ED"/>
<rect x="311" y="49" width="40" height="28" stroke="#E1E8ED"/>
<rect x="351" y="49" width="40" height="28" stroke="#E1E8ED"/>
<rect x="391" y="49" width="40" height="28" stroke="#E1E8ED"/>
<rect x="431" y="49" width="40" height="28" stroke="#E1E8ED"/>
<rect x="471" y="49" width="40" height="28" stroke="#E1E8ED"/>
<rect x="511" y="49" width="40" height="28" stroke="#E1E8ED"/>
<rect x="551" y="49" width="40" height="28" stroke="#E1E8ED"/>
<rect x="591" y="49" width="40" height="28" stroke="#E1E8ED"/>
<rect x="631" y="49" width="40" height="28" stroke="#E1E8ED"/>
</g>
<g clip-path="url(#clip3_189_9515)">
<rect x="-9" y="77" width="40" height="28" stroke="#E1E8ED"/>
<rect x="31" y="77" width="40" height="28" stroke="#E1E8ED"/>
<rect x="71" y="77" width="40" height="28" stroke="#E1E8ED"/>
<rect x="111" y="77" width="40" height="28" stroke="#E1E8ED"/>
<rect x="151" y="77" width="40" height="28" stroke="#E1E8ED"/>
<rect x="191" y="77" width="40" height="28" stroke="#E1E8ED"/>
<rect x="231" y="77" width="40" height="28" stroke="#E1E8ED"/>
<rect x="271" y="77" width="40" height="28" stroke="#E1E8ED"/>
<rect x="311" y="77" width="40" height="28" stroke="#E1E8ED"/>
<rect x="351" y="77" width="40" height="28" stroke="#E1E8ED"/>
<rect x="391" y="77" width="40" height="28" stroke="#E1E8ED"/>
<rect x="431" y="77" width="40" height="28" stroke="#E1E8ED"/>
<rect x="471" y="77" width="40" height="28" stroke="#E1E8ED"/>
<rect x="511" y="77" width="40" height="28" stroke="#E1E8ED"/>
<rect x="551" y="77" width="40" height="28" stroke="#E1E8ED"/>
<rect x="591" y="77" width="40" height="28" stroke="#E1E8ED"/>
<rect x="631" y="77" width="40" height="28" stroke="#E1E8ED"/>
</g>
<g clip-path="url(#clip4_189_9515)">
<rect x="-9" y="105" width="40" height="28" stroke="#E1E8ED"/>
<rect x="31" y="105" width="40" height="28" stroke="#E1E8ED"/>
<rect x="71" y="105" width="40" height="28" stroke="#E1E8ED"/>
<rect x="111" y="105" width="40" height="28" stroke="#E1E8ED"/>
<rect x="151" y="105" width="40" height="28" stroke="#E1E8ED"/>
<rect x="191" y="105" width="40" height="28" stroke="#E1E8ED"/>
<rect x="231" y="105" width="40" height="28" stroke="#E1E8ED"/>
<rect x="271" y="105" width="40" height="28" stroke="#E1E8ED"/>
<rect x="311" y="105" width="40" height="28" stroke="#E1E8ED"/>
<rect x="351" y="105" width="40" height="28" stroke="#E1E8ED"/>
<rect x="391" y="105" width="40" height="28" stroke="#E1E8ED"/>
<rect x="431" y="105" width="40" height="28" stroke="#E1E8ED"/>
<rect x="471" y="105" width="40" height="28" stroke="#E1E8ED"/>
<rect x="511" y="105" width="40" height="28" stroke="#E1E8ED"/>
<rect x="551" y="105" width="40" height="28" stroke="#E1E8ED"/>
<rect x="591" y="105" width="40" height="28" stroke="#E1E8ED"/>
<rect x="631" y="105" width="40" height="28" stroke="#E1E8ED"/>
</g>
<g clip-path="url(#clip5_189_9515)">
<rect x="-9" y="133" width="40" height="28" stroke="#E1E8ED"/>
<rect x="31" y="133" width="40" height="28" stroke="#E1E8ED"/>
<rect x="71" y="133" width="40" height="28" stroke="#E1E8ED"/>
<rect x="111" y="133" width="40" height="28" stroke="#E1E8ED"/>
<rect x="151" y="133" width="40" height="28" stroke="#E1E8ED"/>
<rect x="191" y="133" width="40" height="28" stroke="#E1E8ED"/>
<rect x="231" y="133" width="40" height="28" stroke="#E1E8ED"/>
<rect x="271" y="133" width="40" height="28" stroke="#E1E8ED"/>
<rect x="311" y="133" width="40" height="28" stroke="#E1E8ED"/>
<rect x="351" y="133" width="40" height="28" stroke="#E1E8ED"/>
<rect x="391" y="133" width="40" height="28" stroke="#E1E8ED"/>
<rect x="431" y="133" width="40" height="28" stroke="#E1E8ED"/>
<rect x="471" y="133" width="40" height="28" stroke="#E1E8ED"/>
<rect x="511" y="133" width="40" height="28" stroke="#E1E8ED"/>
<rect x="551" y="133" width="40" height="28" stroke="#E1E8ED"/>
<rect x="591" y="133" width="40" height="28" stroke="#E1E8ED"/>
<rect x="631" y="133" width="40" height="28" stroke="#E1E8ED"/>
</g>
<g clip-path="url(#clip6_189_9515)">
<rect x="-9" y="161" width="40" height="28" stroke="#E1E8ED"/>
<rect x="31" y="161" width="40" height="28" stroke="#E1E8ED"/>
<rect x="71" y="161" width="40" height="28" stroke="#E1E8ED"/>
<rect x="111" y="161" width="40" height="28" stroke="#E1E8ED"/>
<rect x="151" y="161" width="40" height="28" stroke="#E1E8ED"/>
<rect x="191" y="161" width="40" height="28" stroke="#E1E8ED"/>
<rect x="231" y="161" width="40" height="28" stroke="#E1E8ED"/>
<rect x="271" y="161" width="40" height="28" stroke="#E1E8ED"/>
<rect x="311" y="161" width="40" height="28" stroke="#E1E8ED"/>
<rect x="351" y="161" width="40" height="28" stroke="#E1E8ED"/>
<rect x="391" y="161" width="40" height="28" stroke="#E1E8ED"/>
<rect x="431" y="161" width="40" height="28" stroke="#E1E8ED"/>
<rect x="471" y="161" width="40" height="28" stroke="#E1E8ED"/>
<rect x="511" y="161" width="40" height="28" stroke="#E1E8ED"/>
<rect x="551" y="161" width="40" height="28" stroke="#E1E8ED"/>
<rect x="591" y="161" width="40" height="28" stroke="#E1E8ED"/>
<rect x="631" y="161" width="40" height="28" stroke="#E1E8ED"/>
</g>
<g clip-path="url(#clip7_189_9515)">
<rect x="-9" y="189" width="40" height="28" stroke="#E1E8ED"/>
<rect x="31" y="189" width="40" height="28" stroke="#E1E8ED"/>
<rect x="71" y="189" width="40" height="28" stroke="#E1E8ED"/>
<rect x="111" y="189" width="40" height="28" stroke="#E1E8ED"/>
<rect x="151" y="189" width="40" height="28" stroke="#E1E8ED"/>
<rect x="191" y="189" width="40" height="28" stroke="#E1E8ED"/>
<rect x="231" y="189" width="40" height="28" stroke="#E1E8ED"/>
<rect x="271" y="189" width="40" height="28" stroke="#E1E8ED"/>
<rect x="311" y="189" width="40" height="28" stroke="#E1E8ED"/>
<rect x="351" y="189" width="40" height="28" stroke="#E1E8ED"/>
<rect x="391" y="189" width="40" height="28" stroke="#E1E8ED"/>
<rect x="431" y="189" width="40" height="28" stroke="#E1E8ED"/>
<rect x="471" y="189" width="40" height="28" stroke="#E1E8ED"/>
<rect x="511" y="189" width="40" height="28" stroke="#E1E8ED"/>
<rect x="551" y="189" width="40" height="28" stroke="#E1E8ED"/>
<rect x="591" y="189" width="40" height="28" stroke="#E1E8ED"/>
<rect x="631" y="189" width="40" height="28" stroke="#E1E8ED"/>
</g>
<g clip-path="url(#clip8_189_9515)">
<rect x="-9" y="217" width="40" height="28" stroke="#E1E8ED"/>
<rect x="31" y="217" width="40" height="28" stroke="#E1E8ED"/>
<rect x="71" y="217" width="40" height="28" stroke="#E1E8ED"/>
<rect x="111" y="217" width="40" height="28" stroke="#E1E8ED"/>
<rect x="151" y="217" width="40" height="28" stroke="#E1E8ED"/>
<rect x="191" y="217" width="40" height="28" stroke="#E1E8ED"/>
<rect x="231" y="217" width="40" height="28" stroke="#E1E8ED"/>
<rect x="271" y="217" width="40" height="28" stroke="#E1E8ED"/>
<rect x="311" y="217" width="40" height="28" stroke="#E1E8ED"/>
<rect x="351" y="217" width="40" height="28" stroke="#E1E8ED"/>
<rect x="391" y="217" width="40" height="28" stroke="#E1E8ED"/>
<rect x="431" y="217" width="40" height="28" stroke="#E1E8ED"/>
<rect x="471" y="217" width="40" height="28" stroke="#E1E8ED"/>
<rect x="511" y="217" width="40" height="28" stroke="#E1E8ED"/>
<rect x="551" y="217" width="40" height="28" stroke="#E1E8ED"/>
<rect x="591" y="217" width="40" height="28" stroke="#E1E8ED"/>
<rect x="631" y="217" width="40" height="28" stroke="#E1E8ED"/>
</g>
<g clip-path="url(#clip9_189_9515)">
<rect x="-9" y="245" width="40" height="28" stroke="#E1E8ED"/>
<rect x="31" y="245" width="40" height="28" stroke="#E1E8ED"/>
<rect x="71" y="245" width="40" height="28" stroke="#E1E8ED"/>
<rect x="111" y="245" width="40" height="28" stroke="#E1E8ED"/>
<rect x="151" y="245" width="40" height="28" stroke="#E1E8ED"/>
<rect x="191" y="245" width="40" height="28" stroke="#E1E8ED"/>
<rect x="231" y="245" width="40" height="28" stroke="#E1E8ED"/>
<rect x="271" y="245" width="40" height="28" stroke="#E1E8ED"/>
<rect x="311" y="245" width="40" height="28" stroke="#E1E8ED"/>
<rect x="351" y="245" width="40" height="28" stroke="#E1E8ED"/>
<rect x="391" y="245" width="40" height="28" stroke="#E1E8ED"/>
<rect x="431" y="245" width="40" height="28" stroke="#E1E8ED"/>
<rect x="471" y="245" width="40" height="28" stroke="#E1E8ED"/>
<rect x="511" y="245" width="40" height="28" stroke="#E1E8ED"/>
<rect x="551" y="245" width="40" height="28" stroke="#E1E8ED"/>
<rect x="591" y="245" width="40" height="28" stroke="#E1E8ED"/>
<rect x="631" y="245" width="40" height="28" stroke="#E1E8ED"/>
</g>
<g clip-path="url(#clip10_189_9515)">
<rect x="-9" y="273" width="40" height="28" stroke="#E1E8ED"/>
<rect x="31" y="273" width="40" height="28" stroke="#E1E8ED"/>
<rect x="71" y="273" width="40" height="28" stroke="#E1E8ED"/>
<rect x="111" y="273" width="40" height="28" stroke="#E1E8ED"/>
<rect x="151" y="273" width="40" height="28" stroke="#E1E8ED"/>
<rect x="191" y="273" width="40" height="28" stroke="#E1E8ED"/>
<rect x="231" y="273" width="40" height="28" stroke="#E1E8ED"/>
<rect x="271" y="273" width="40" height="28" stroke="#E1E8ED"/>
<rect x="311" y="273" width="40" height="28" stroke="#E1E8ED"/>
<rect x="351" y="273" width="40" height="28" stroke="#E1E8ED"/>
<rect x="391" y="273" width="40" height="28" stroke="#E1E8ED"/>
<rect x="431" y="273" width="40" height="28" stroke="#E1E8ED"/>
<rect x="471" y="273" width="40" height="28" stroke="#E1E8ED"/>
<rect x="511" y="273" width="40" height="28" stroke="#E1E8ED"/>
<rect x="551" y="273" width="40" height="28" stroke="#E1E8ED"/>
<rect x="591" y="273" width="40" height="28" stroke="#E1E8ED"/>
<rect x="631" y="273" width="40" height="28" stroke="#E1E8ED"/>
</g>
<g clip-path="url(#clip11_189_9515)">
<rect x="-9" y="301" width="40" height="28" stroke="#E1E8ED"/>
<rect x="31" y="301" width="40" height="28" stroke="#E1E8ED"/>
<rect x="71" y="301" width="40" height="28" stroke="#E1E8ED"/>
<rect x="111" y="301" width="40" height="28" stroke="#E1E8ED"/>
<rect x="151" y="301" width="40" height="28" stroke="#E1E8ED"/>
<rect x="191" y="301" width="40" height="28" stroke="#E1E8ED"/>
<rect x="231" y="301" width="40" height="28" stroke="#E1E8ED"/>
<rect x="271" y="301" width="40" height="28" stroke="#E1E8ED"/>
<rect x="311" y="301" width="40" height="28" stroke="#E1E8ED"/>
<rect x="351" y="301" width="40" height="28" stroke="#E1E8ED"/>
<rect x="391" y="301" width="40" height="28" stroke="#E1E8ED"/>
<rect x="431" y="301" width="40" height="28" stroke="#E1E8ED"/>
<rect x="471" y="301" width="40" height="28" stroke="#E1E8ED"/>
<rect x="511" y="301" width="40" height="28" stroke="#E1E8ED"/>
<rect x="551" y="301" width="40" height="28" stroke="#E1E8ED"/>
<rect x="591" y="301" width="40" height="28" stroke="#E1E8ED"/>
<rect x="631" y="301" width="40" height="28" stroke="#E1E8ED"/>
</g>
<g clip-path="url(#clip12_189_9515)">
<rect x="-9" y="329" width="40" height="28" stroke="#E1E8ED"/>
<rect x="31" y="329" width="40" height="28" stroke="#E1E8ED"/>
<rect x="71" y="329" width="40" height="28" stroke="#E1E8ED"/>
<rect x="111" y="329" width="40" height="28" stroke="#E1E8ED"/>
<rect x="151" y="329" width="40" height="28" stroke="#E1E8ED"/>
<rect x="191" y="329" width="40" height="28" stroke="#E1E8ED"/>
<rect x="231" y="329" width="40" height="28" stroke="#E1E8ED"/>
<rect x="271" y="329" width="40" height="28" stroke="#E1E8ED"/>
<rect x="311" y="329" width="40" height="28" stroke="#E1E8ED"/>
<rect x="351" y="329" width="40" height="28" stroke="#E1E8ED"/>
<rect x="391" y="329" width="40" height="28" stroke="#E1E8ED"/>
<rect x="431" y="329" width="40" height="28" stroke="#E1E8ED"/>
<rect x="471" y="329" width="40" height="28" stroke="#E1E8ED"/>
<rect x="511" y="329" width="40" height="28" stroke="#E1E8ED"/>
<rect x="551" y="329" width="40" height="28" stroke="#E1E8ED"/>
<rect x="591" y="329" width="40" height="28" stroke="#E1E8ED"/>
<rect x="631" y="329" width="40" height="28" stroke="#E1E8ED"/>
</g>
</g>
<path opacity="0.5" d="M173.344 354.927H160V356L575 355.195V342.313L559.432 344.729L545.198 342.313L530.52 344.729L511.838 318.429L503.832 310.915L485.15 298.033L470.472 299.912L455.348 281.394L452.68 276.027L441.115 250.801L426.881 259.388L410.868 211.888L397.524 216.718L381.511 177L366.833 200.885L352.599 237.382L337.031 203.3L328.135 210.277L323.242 216.718L307.229 207.862L291.661 250.801L285.879 261.535L263.194 298.033L248.071 312.256L233.392 307.694L204.925 344.192L185.798 353.853L173.344 354.927Z" fill="#D8E1E8" stroke="black"/>
<path opacity="0.6" d="M170.63 354.74L160 352.723V356L575 355.244V343.649L543.554 326.258L529.824 314.915L515.651 312.899L501.035 320.964L485.534 312.899L470.918 318.696L456.302 272.57L443.015 267.529L426.185 258.707L407.583 211.573L396.953 173.764L381.894 177.797L367.279 172L352.663 175.529L338.49 202.247L322.988 219.89L307.93 272.57L293.757 283.408L278.698 315.671L248.581 347.682L233.965 349.699L218.906 340.121L206.505 344.91L189.232 353.984L174.616 354.74H170.63Z" fill="#A854A8" stroke="#752F75" stroke-width="2"/>
<path opacity="0.6" d="M121.144 354.74L112 352.723V356L469 355.244V343.649L441.949 326.258L430.138 314.915L417.946 312.899L405.372 320.964L392.037 312.899L379.464 318.696L366.891 272.57L355.461 267.529L340.983 258.707L324.981 211.573L315.837 173.764L302.883 177.797L290.309 172L277.736 175.529L265.544 202.247L252.209 219.89L239.255 272.57L227.063 283.408L214.109 315.671L188.201 347.682L175.628 349.699L162.673 340.121L152.005 344.91L137.146 353.984L124.573 354.74H121.144Z" fill="#634DBF" stroke="#5642A6" stroke-width="2"/>
<g clip-path="url(#clip13_189_9515)">
<rect x="24" y="63" width="65" height="301" fill="white"/>
<g clip-path="url(#clip14_189_9515)">
<path d="M70.2559 81H71.3496V73.9541H70.2607L68.4053 75.2725V76.3467L70.1729 75.082H70.2559V81ZM74.9678 81.0732C75.373 81.0732 75.6807 80.7607 75.6807 80.3652C75.6807 79.9648 75.373 79.6523 74.9678 79.6523C74.5625 79.6523 74.25 79.9648 74.25 80.3652C74.25 80.7607 74.5625 81.0732 74.9678 81.0732ZM79.7676 81.1709C81.3838 81.1709 82.3555 79.75 82.3555 77.4795V77.4697C82.3555 75.1992 81.3838 73.7832 79.7676 73.7832C78.1514 73.7832 77.1797 75.1992 77.1797 77.4697V77.4795C77.1797 79.75 78.1514 81.1709 79.7676 81.1709ZM79.7676 80.2627C78.8252 80.2627 78.2832 79.2031 78.2832 77.4795V77.4697C78.2832 75.7461 78.8252 74.6963 79.7676 74.6963C80.7051 74.6963 81.2568 75.7461 81.2568 77.4697V77.4795C81.2568 79.2031 80.7051 80.2627 79.7676 80.2627Z" fill="#738694"/>
<path d="M70.1582 109.171C71.7744 109.171 72.7461 107.75 72.7461 105.479V105.47C72.7461 103.199 71.7744 101.783 70.1582 101.783C68.542 101.783 67.5703 103.199 67.5703 105.47V105.479C67.5703 107.75 68.542 109.171 70.1582 109.171ZM70.1582 108.263C69.2158 108.263 68.6738 107.203 68.6738 105.479V105.47C68.6738 103.746 69.2158 102.696 70.1582 102.696C71.0957 102.696 71.6475 103.746 71.6475 105.47V105.479C71.6475 107.203 71.0957 108.263 70.1582 108.263ZM74.9678 109.073C75.373 109.073 75.6807 108.761 75.6807 108.365C75.6807 107.965 75.373 107.652 74.9678 107.652C74.5625 107.652 74.25 107.965 74.25 108.365C74.25 108.761 74.5625 109.073 74.9678 109.073ZM79.6748 101.783C78.21 101.783 77.1553 102.818 77.1553 104.234V104.244C77.1553 105.592 78.1074 106.588 79.4258 106.588C80.3779 106.588 81.0029 106.085 81.252 105.519H81.3496C81.3496 105.572 81.3447 105.626 81.3447 105.68C81.291 107.086 80.8076 108.243 79.6406 108.243C78.9912 108.243 78.542 107.901 78.3467 107.364L78.3271 107.315H77.2432L77.2578 107.374C77.4824 108.438 78.4053 109.171 79.6357 109.171C81.3594 109.171 82.3896 107.765 82.3896 105.377V105.367C82.3896 102.779 81.0762 101.783 79.6748 101.783ZM79.6699 105.704C78.8398 105.704 78.2295 105.079 78.2295 104.215V104.205C78.2295 103.36 78.8789 102.701 79.6846 102.701C80.4951 102.701 81.1348 103.375 81.1348 104.234V104.239C81.1348 105.089 80.5 105.704 79.6699 105.704Z" fill="#738694"/>
<path d="M70.1582 137.171C71.7744 137.171 72.7461 135.75 72.7461 133.479V133.47C72.7461 131.199 71.7744 129.783 70.1582 129.783C68.542 129.783 67.5703 131.199 67.5703 133.47V133.479C67.5703 135.75 68.542 137.171 70.1582 137.171ZM70.1582 136.263C69.2158 136.263 68.6738 135.203 68.6738 133.479V133.47C68.6738 131.746 69.2158 130.696 70.1582 130.696C71.0957 130.696 71.6475 131.746 71.6475 133.47V133.479C71.6475 135.203 71.0957 136.263 70.1582 136.263ZM74.9678 137.073C75.373 137.073 75.6807 136.761 75.6807 136.365C75.6807 135.965 75.373 135.652 74.9678 135.652C74.5625 135.652 74.25 135.965 74.25 136.365C74.25 136.761 74.5625 137.073 74.9678 137.073ZM79.7676 137.132C81.3105 137.132 82.3945 136.292 82.3945 135.096V135.086C82.3945 134.197 81.7646 133.489 80.8613 133.289V133.265C81.6377 133.04 82.1455 132.449 82.1455 131.702V131.692C82.1455 130.613 81.1543 129.822 79.7676 129.822C78.3857 129.822 77.3945 130.613 77.3945 131.692V131.702C77.3945 132.449 77.9023 133.04 78.6787 133.265V133.289C77.7754 133.489 77.1455 134.197 77.1455 135.086V135.096C77.1455 136.292 78.2246 137.132 79.7676 137.132ZM79.7676 132.898C79.0059 132.898 78.4785 132.439 78.4785 131.795V131.785C78.4785 131.141 79.0059 130.691 79.7676 130.691C80.5342 130.691 81.0615 131.141 81.0615 131.785V131.795C81.0615 132.439 80.5342 132.898 79.7676 132.898ZM79.7676 136.253C78.8936 136.253 78.2686 135.74 78.2686 135.027V135.018C78.2686 134.295 78.8838 133.772 79.7676 133.772C80.6514 133.772 81.2666 134.295 81.2666 135.018V135.027C81.2666 135.74 80.6465 136.253 79.7676 136.253Z" fill="#738694"/>
<path d="M70.1582 165.171C71.7744 165.171 72.7461 163.75 72.7461 161.479V161.47C72.7461 159.199 71.7744 157.783 70.1582 157.783C68.542 157.783 67.5703 159.199 67.5703 161.47V161.479C67.5703 163.75 68.542 165.171 70.1582 165.171ZM70.1582 164.263C69.2158 164.263 68.6738 163.203 68.6738 161.479V161.47C68.6738 159.746 69.2158 158.696 70.1582 158.696C71.0957 158.696 71.6475 159.746 71.6475 161.47V161.479C71.6475 163.203 71.0957 164.263 70.1582 164.263ZM74.9678 165.073C75.373 165.073 75.6807 164.761 75.6807 164.365C75.6807 163.965 75.373 163.652 74.9678 163.652C74.5625 163.652 74.25 163.965 74.25 164.365C74.25 164.761 74.5625 165.073 74.9678 165.073ZM77.8584 165H79.0059L82.1748 158.901V157.954H77.2529V158.877H81.0664V158.955L77.8584 165Z" fill="#738694"/>
<path d="M70.1582 193.171C71.7744 193.171 72.7461 191.75 72.7461 189.479V189.47C72.7461 187.199 71.7744 185.783 70.1582 185.783C68.542 185.783 67.5703 187.199 67.5703 189.47V189.479C67.5703 191.75 68.542 193.171 70.1582 193.171ZM70.1582 192.263C69.2158 192.263 68.6738 191.203 68.6738 189.479V189.47C68.6738 187.746 69.2158 186.696 70.1582 186.696C71.0957 186.696 71.6475 187.746 71.6475 189.47V189.479C71.6475 191.203 71.0957 192.263 70.1582 192.263ZM74.9678 193.073C75.373 193.073 75.6807 192.761 75.6807 192.365C75.6807 191.965 75.373 191.652 74.9678 191.652C74.5625 191.652 74.25 191.965 74.25 192.365C74.25 192.761 74.5625 193.073 74.9678 193.073ZM79.8652 193.171C81.3301 193.171 82.3848 192.136 82.3848 190.72V190.71C82.3848 189.362 81.4375 188.366 80.1094 188.366C79.1621 188.366 78.5371 188.869 78.2832 189.436H78.1904C78.1904 189.382 78.1904 189.328 78.1953 189.27C78.249 187.868 78.7324 186.711 79.8994 186.711C80.5439 186.711 80.998 187.053 81.1885 187.59L81.208 187.639H82.292L82.2822 187.58C82.0527 186.516 81.1348 185.783 79.9043 185.783C78.1807 185.783 77.1504 187.189 77.1504 189.572V189.582C77.1504 192.175 78.4639 193.171 79.8652 193.171ZM78.4053 190.72V190.715C78.4053 189.865 79.04 189.25 79.8652 189.25C80.7051 189.25 81.3057 189.875 81.3057 190.739V190.749C81.3057 191.594 80.666 192.253 79.8555 192.253C79.04 192.253 78.4053 191.579 78.4053 190.72Z" fill="#738694"/>
<path d="M70.1582 221.171C71.7744 221.171 72.7461 219.75 72.7461 217.479V217.47C72.7461 215.199 71.7744 213.783 70.1582 213.783C68.542 213.783 67.5703 215.199 67.5703 217.47V217.479C67.5703 219.75 68.542 221.171 70.1582 221.171ZM70.1582 220.263C69.2158 220.263 68.6738 219.203 68.6738 217.479V217.47C68.6738 215.746 69.2158 214.696 70.1582 214.696C71.0957 214.696 71.6475 215.746 71.6475 217.47V217.479C71.6475 219.203 71.0957 220.263 70.1582 220.263ZM74.9678 221.073C75.373 221.073 75.6807 220.761 75.6807 220.365C75.6807 219.965 75.373 219.652 74.9678 219.652C74.5625 219.652 74.25 219.965 74.25 220.365C74.25 220.761 74.5625 221.073 74.9678 221.073ZM79.8115 221.171C81.2812 221.171 82.3213 220.175 82.3213 218.729V218.72C82.3213 217.367 81.3789 216.381 80.0703 216.381C79.4258 216.381 78.8789 216.654 78.5811 217.128H78.498L78.7129 214.882H81.9209V213.954H77.8535L77.5068 218.046H78.4492C78.5322 217.885 78.6445 217.748 78.7666 217.636C79.0449 217.382 79.4014 217.255 79.8311 217.255C80.6709 217.255 81.2764 217.87 81.2764 218.739V218.749C81.2764 219.633 80.6807 220.253 79.8164 220.253C79.0596 220.253 78.498 219.76 78.4102 219.14L78.4053 219.101H77.3799L77.3848 219.164C77.4824 220.307 78.4346 221.171 79.8115 221.171Z" fill="#738694"/>
<path d="M70.1582 249.171C71.7744 249.171 72.7461 247.75 72.7461 245.479V245.47C72.7461 243.199 71.7744 241.783 70.1582 241.783C68.542 241.783 67.5703 243.199 67.5703 245.47V245.479C67.5703 247.75 68.542 249.171 70.1582 249.171ZM70.1582 248.263C69.2158 248.263 68.6738 247.203 68.6738 245.479V245.47C68.6738 243.746 69.2158 242.696 70.1582 242.696C71.0957 242.696 71.6475 243.746 71.6475 245.47V245.479C71.6475 247.203 71.0957 248.263 70.1582 248.263ZM74.9678 249.073C75.373 249.073 75.6807 248.761 75.6807 248.365C75.6807 247.965 75.373 247.652 74.9678 247.652C74.5625 247.652 74.25 247.965 74.25 248.365C74.25 248.761 74.5625 249.073 74.9678 249.073ZM80.4414 249H81.501V247.599H82.4482V246.671H81.501V241.954H79.9385C78.9961 243.414 77.9854 245.079 77.0771 246.671V247.599H80.4414V249ZM78.127 246.69V246.622C78.8252 245.387 79.6602 244.015 80.3926 242.877H80.4561V246.69H78.127Z" fill="#738694"/>
<path d="M70.1582 277.171C71.7744 277.171 72.7461 275.75 72.7461 273.479V273.47C72.7461 271.199 71.7744 269.783 70.1582 269.783C68.542 269.783 67.5703 271.199 67.5703 273.47V273.479C67.5703 275.75 68.542 277.171 70.1582 277.171ZM70.1582 276.263C69.2158 276.263 68.6738 275.203 68.6738 273.479V273.47C68.6738 271.746 69.2158 270.696 70.1582 270.696C71.0957 270.696 71.6475 271.746 71.6475 273.47V273.479C71.6475 275.203 71.0957 276.263 70.1582 276.263ZM74.9678 277.073C75.373 277.073 75.6807 276.761 75.6807 276.365C75.6807 275.965 75.373 275.652 74.9678 275.652C74.5625 275.652 74.25 275.965 74.25 276.365C74.25 276.761 74.5625 277.073 74.9678 277.073ZM79.8018 277.132C81.2666 277.132 82.2969 276.263 82.2969 275.052V275.042C82.2969 274.056 81.623 273.431 80.6221 273.338V273.313C81.4521 273.133 82.0625 272.547 82.0625 271.673V271.663C82.0625 270.574 81.1641 269.822 79.7871 269.822C78.4443 269.822 77.5264 270.608 77.4189 271.795L77.4141 271.849H78.4443L78.4492 271.8C78.5127 271.136 79.04 270.721 79.7871 270.721C80.5586 270.721 80.998 271.121 80.998 271.805V271.814C80.998 272.469 80.4707 272.942 79.6943 272.942H78.8984V273.792H79.7236C80.627 273.792 81.1836 274.236 81.1836 275.032V275.042C81.1836 275.735 80.6318 276.219 79.7969 276.219C78.957 276.219 78.3955 275.77 78.3271 275.13L78.3223 275.081H77.2725L77.2773 275.14C77.3701 276.307 78.3271 277.132 79.8018 277.132Z" fill="#738694"/>
<path d="M70.1582 305.171C71.7744 305.171 72.7461 303.75 72.7461 301.479V301.47C72.7461 299.199 71.7744 297.783 70.1582 297.783C68.542 297.783 67.5703 299.199 67.5703 301.47V301.479C67.5703 303.75 68.542 305.171 70.1582 305.171ZM70.1582 304.263C69.2158 304.263 68.6738 303.203 68.6738 301.479V301.47C68.6738 299.746 69.2158 298.696 70.1582 298.696C71.0957 298.696 71.6475 299.746 71.6475 301.47V301.479C71.6475 303.203 71.0957 304.263 70.1582 304.263ZM74.9678 305.073C75.373 305.073 75.6807 304.761 75.6807 304.365C75.6807 303.965 75.373 303.652 74.9678 303.652C74.5625 303.652 74.25 303.965 74.25 304.365C74.25 304.761 74.5625 305.073 74.9678 305.073ZM77.4971 305H82.1357V304.067H78.9863V303.96L80.4219 302.48C81.6621 301.211 82.0283 300.596 82.0283 299.795V299.78C82.0283 298.618 81.0859 297.783 79.7969 297.783C78.415 297.783 77.4434 298.691 77.4385 299.976L77.4434 299.99L78.4688 299.995L78.4736 299.976C78.4736 299.204 78.9814 298.687 79.7383 298.687C80.4805 298.687 80.9346 299.194 80.9346 299.883V299.897C80.9346 300.469 80.6758 300.83 79.7627 301.802L77.4971 304.258V305Z" fill="#738694"/>
<path d="M70.1582 333.171C71.7744 333.171 72.7461 331.75 72.7461 329.479V329.47C72.7461 327.199 71.7744 325.783 70.1582 325.783C68.542 325.783 67.5703 327.199 67.5703 329.47V329.479C67.5703 331.75 68.542 333.171 70.1582 333.171ZM70.1582 332.263C69.2158 332.263 68.6738 331.203 68.6738 329.479V329.47C68.6738 327.746 69.2158 326.696 70.1582 326.696C71.0957 326.696 71.6475 327.746 71.6475 329.47V329.479C71.6475 331.203 71.0957 332.263 70.1582 332.263ZM74.9678 333.073C75.373 333.073 75.6807 332.761 75.6807 332.365C75.6807 331.965 75.373 331.652 74.9678 331.652C74.5625 331.652 74.25 331.965 74.25 332.365C74.25 332.761 74.5625 333.073 74.9678 333.073ZM79.8652 333H80.959V325.954H79.8701L78.0146 327.272V328.347L79.7822 327.082H79.8652V333Z" fill="#738694"/>
</g>
<rect x="35" y="73" width="8" height="8" fill="#D8E1E8"/>
<rect x="35" y="88" width="8" height="8" fill="#A854A8"/>
<rect x="35" y="103" width="8" height="8" fill="#5642A6"/>
<path d="M43 177.994V176.682H39.4609V173.049H38.3535V176.682H35.6758V172.715H34.5449V177.994H43ZM43 171.156V169.885H39.1973C38.2773 169.885 37.6797 169.223 37.6797 168.25C37.6797 168.01 37.709 167.793 37.7559 167.564H36.584C36.5547 167.693 36.5254 167.916 36.5254 168.121C36.5254 168.971 36.9238 169.562 37.5977 169.791V169.885H36.6367V171.156H43ZM43.123 163.844C43.123 162.215 42.1855 161.336 41.3477 161.125L41.2949 161.113L41.3008 162.338L41.3477 162.361C41.6758 162.514 42.0801 163 42.0801 163.814C42.0801 164.863 41.3711 165.531 40.1523 165.555V161.043H39.707C37.7969 161.043 36.5137 162.133 36.5137 163.908C36.5137 165.684 37.8438 166.832 39.8301 166.832H39.8359C41.8516 166.832 43.123 165.707 43.123 163.844ZM37.5566 163.902C37.5566 163.041 38.1074 162.402 39.2441 162.303V165.537C38.1484 165.426 37.5566 164.77 37.5566 163.902ZM45.1211 155.143V153.877H36.6367V155.143H37.6914V155.219C36.9707 155.6 36.5254 156.338 36.5254 157.193C36.5254 158.822 37.7969 159.842 39.8125 159.842H39.8242C41.8223 159.842 43.1055 158.811 43.1055 157.205C43.1055 156.297 42.7129 155.576 42.0391 155.242V155.143H45.1211ZM42.0215 156.836C42.0215 157.902 41.1895 158.547 39.8242 158.547H39.8125C38.4473 158.547 37.6152 157.902 37.6152 156.842C37.6152 155.787 38.459 155.119 39.8125 155.119H39.8242C41.1719 155.119 42.0215 155.787 42.0215 156.836ZM43.123 149.934C43.123 149.008 42.7246 148.363 42.0391 148.059V147.959H43V146.693H36.6367V147.959H40.3691C41.3945 147.959 42.0332 148.504 42.0332 149.523C42.0332 150.455 41.5117 150.842 40.457 150.842H36.6367V152.113H40.7559C42.2617 152.113 43.123 151.369 43.123 149.934ZM43.123 142.188C43.123 140.559 42.1855 139.68 41.3477 139.469L41.2949 139.457L41.3008 140.682L41.3477 140.705C41.6758 140.857 42.0801 141.344 42.0801 142.158C42.0801 143.207 41.3711 143.875 40.1523 143.898V139.387H39.707C37.7969 139.387 36.5137 140.477 36.5137 142.252C36.5137 144.027 37.8438 145.176 39.8301 145.176H39.8359C41.8516 145.176 43.123 144.051 43.123 142.188ZM37.5566 142.246C37.5566 141.385 38.1074 140.746 39.2441 140.646V143.881C38.1484 143.77 37.5566 143.113 37.5566 142.246ZM43 137.875V136.604H39.2676C38.2422 136.604 37.6035 136.023 37.6035 135.092C37.6035 134.16 38.125 133.721 39.1797 133.721H43V132.455H38.8809C37.3633 132.455 36.5137 133.24 36.5137 134.664C36.5137 135.59 36.9238 136.199 37.6035 136.51V136.604H36.6367V137.875H43ZM43.123 128.002C43.123 126.426 42.2734 125.518 41.0371 125.289L40.9844 125.277V126.496L41.0137 126.508C41.6992 126.713 42.0625 127.205 42.0625 128.002C42.0625 129.051 41.207 129.701 39.8008 129.701H39.7891C38.418 129.701 37.5742 129.062 37.5742 128.002C37.5742 127.158 38.043 126.643 38.6699 126.502L38.6875 126.496L38.6816 125.277H38.6523C37.416 125.453 36.5137 126.408 36.5137 128.008C36.5137 129.865 37.7734 130.996 39.7891 130.996H39.8008C41.8574 130.996 43.123 129.859 43.123 128.002ZM45.2383 123.215C45.2383 121.926 44.7637 121.281 43.2461 120.742L36.6367 118.375V119.711L41.7227 121.299V121.41L36.6367 123.004V124.375L43.0059 122.066L43.334 122.16C43.9785 122.348 44.2305 122.705 44.2305 123.297C44.2305 123.443 44.2246 123.602 44.207 123.725H45.209C45.2266 123.561 45.2383 123.373 45.2383 123.215Z" fill="#394B59"/>
<g clip-path="url(#clip15_189_9515)">
<path d="M84.9814 77.6465H88.248V76.6748H84.9814V77.6465Z" fill="#CED9E0"/>
<path d="M84.9814 105.646H88.248V104.675H84.9814V105.646Z" fill="#CED9E0"/>
<path d="M84.9814 133.646H88.248V132.675H84.9814V133.646Z" fill="#CED9E0"/>
<path d="M84.9814 161.646H88.248V160.675H84.9814V161.646Z" fill="#CED9E0"/>
<path d="M84.9814 189.646H88.248V188.675H84.9814V189.646Z" fill="#CED9E0"/>
<path d="M84.9814 217.646H88.248V216.675H84.9814V217.646Z" fill="#CED9E0"/>
<path d="M84.9814 245.646H88.248V244.675H84.9814V245.646Z" fill="#CED9E0"/>
<path d="M84.9814 273.646H88.248V272.675H84.9814V273.646Z" fill="#CED9E0"/>
<path d="M84.9814 301.646H88.248V300.675H84.9814V301.646Z" fill="#CED9E0"/>
<path d="M84.9814 329.646H88.248V328.675H84.9814V329.646Z" fill="#CED9E0"/>
<path d="M84.9814 357.646H88.248V356.675H84.9814V357.646Z" fill="#CED9E0"/>
</g>
</g>
<rect x="24.5" y="63.5" width="64" height="300" stroke="#CED9E0"/>
<path d="M27 16.5H649C650.381 16.5 651.5 17.6193 651.5 19V63.5H24.5V19C24.5 17.6193 25.6193 16.5 27 16.5Z" fill="white"/>
<g clip-path="url(#clip16_189_9515)">
<path d="M41.0547 46.1953C43.8984 46.1953 45.6016 44.8203 45.6016 42.6562V42.6484C45.6016 40.875 44.5391 39.9141 42.1797 39.4453L40.9844 39.2031C39.6875 38.9453 39.1094 38.5312 39.1094 37.8203V37.8125C39.1094 37.0078 39.8359 36.4531 41.0469 36.4453C42.2109 36.4453 43.0234 36.9844 43.1406 37.8672L43.1484 37.9609H45.375L45.3672 37.8125C45.2578 35.8359 43.6562 34.5312 41.0469 34.5312C38.5469 34.5312 36.75 35.8906 36.75 37.9531V37.9609C36.75 39.6562 37.875 40.7188 40.1016 41.1641L41.2891 41.3984C42.6875 41.6875 43.2422 42.0703 43.2422 42.8359V42.8438C43.2422 43.7031 42.4219 44.2734 41.1172 44.2734C39.8281 44.2734 38.8984 43.7266 38.75 42.8516L38.7344 42.7656H36.5078L36.5156 42.8906C36.6484 44.9688 38.375 46.1953 41.0547 46.1953ZM51.6641 46.1719C54.0547 46.1719 55.2109 44.7578 55.4688 43.5234L55.4922 43.4375H53.3984L53.3828 43.4844C53.2188 43.9531 52.6484 44.4688 51.7109 44.4688C50.5469 44.4688 49.8203 43.6875 49.7969 42.3516H55.5625V41.6484C55.5625 39.1172 54.0234 37.4531 51.5703 37.4531C49.1172 37.4531 47.5469 39.1562 47.5469 41.8203V41.8281C47.5469 44.5078 49.1016 46.1719 51.6641 46.1719ZM51.6094 39.1562C52.5547 39.1562 53.2344 39.7578 53.375 40.9141H49.8203C49.9688 39.7812 50.6719 39.1562 51.6094 39.1562ZM57.7969 46H60.0781V34.7266H57.7969V46ZM62.6719 46H64.9531V34.7266H62.6719V46ZM68.6797 36.5469C69.3672 36.5469 69.8984 36.0078 69.8984 35.3594C69.8984 34.7109 69.3672 34.1719 68.6797 34.1719C67.9922 34.1719 67.4609 34.7109 67.4609 35.3594C67.4609 36.0078 67.9922 36.5469 68.6797 36.5469ZM67.5391 46H69.8203V37.625H67.5391V46ZM72.3516 46H74.6328V41.1875C74.6328 40.0938 75.2812 39.3438 76.3047 39.3438C77.3281 39.3438 77.8438 39.9688 77.8438 41.0625V46H80.125V40.5938C80.125 38.6328 79.0781 37.4531 77.2344 37.4531C75.9688 37.4531 75.1094 38.0391 74.6797 39H74.6328V37.625H72.3516V46ZM86.4844 48.9062C89 48.9062 90.5703 47.6328 90.5703 45.7656V37.625H88.2891V39.0547H88.2422C87.7891 38.0781 86.875 37.4531 85.6953 37.4531C83.5781 37.4531 82.2656 39.0391 82.2656 41.7109V41.7188C82.2656 44.3203 83.5625 45.8828 85.6562 45.8828C86.8672 45.8828 87.8047 45.3281 88.2422 44.4531H88.2891V45.7344C88.2891 46.6719 87.6641 47.2812 86.4844 47.2812C85.5312 47.2812 84.9219 46.9219 84.7422 46.5078L84.7188 46.4531H82.5L82.5078 46.5234C82.7266 47.8672 84.1797 48.9062 86.4844 48.9062ZM86.4453 44.2109C85.3047 44.2109 84.5859 43.2812 84.5859 41.7734V41.7656C84.5859 40.2656 85.3125 39.3438 86.4453 39.3438C87.5547 39.3438 88.2969 40.2734 88.2969 41.7656V41.7734C88.2969 43.2734 87.5625 44.2109 86.4453 44.2109ZM97.4375 46H99.7969V42.4453H101.969C104.344 42.4453 105.93 40.9141 105.93 38.5938V38.5781C105.93 36.2578 104.344 34.7266 101.969 34.7266H97.4375V46ZM101.391 36.5938C102.742 36.5938 103.539 37.3047 103.539 38.5859V38.6016C103.539 39.8828 102.742 40.6016 101.391 40.6016H99.7969V36.5938H101.391ZM108.133 46H110.414V41.3125C110.414 40.0938 111.07 39.4219 112.195 39.4219C112.523 39.4219 112.836 39.4688 113.023 39.5469V37.5391C112.852 37.4922 112.617 37.4531 112.367 37.4531C111.391 37.4531 110.711 38.0547 110.461 39.0859H110.414V37.625H108.133V46ZM116.148 36.5469C116.836 36.5469 117.367 36.0078 117.367 35.3594C117.367 34.7109 116.836 34.1719 116.148 34.1719C115.461 34.1719 114.93 34.7109 114.93 35.3594C114.93 36.0078 115.461 36.5469 116.148 36.5469ZM115.008 46H117.289V37.625H115.008V46ZM123.648 46.1719C125.883 46.1719 127.328 44.7812 127.438 42.9531V42.9062H125.312L125.305 42.9766C125.148 43.8203 124.578 44.3828 123.664 44.3828C122.539 44.3828 121.836 43.4531 121.836 41.8125V41.8047C121.836 40.2031 122.539 39.2422 123.656 39.2422C124.602 39.2422 125.156 39.8516 125.297 40.6484L125.312 40.7188H127.43V40.6641C127.344 38.8516 125.898 37.4531 123.625 37.4531C121.117 37.4531 119.516 39.1172 119.516 41.7969V41.8047C119.516 44.5078 121.094 46.1719 123.648 46.1719ZM133.352 46.1719C135.742 46.1719 136.898 44.7578 137.156 43.5234L137.18 43.4375H135.086L135.07 43.4844C134.906 43.9531 134.336 44.4688 133.398 44.4688C132.234 44.4688 131.508 43.6875 131.484 42.3516H137.25V41.6484C137.25 39.1172 135.711 37.4531 133.258 37.4531C130.805 37.4531 129.234 39.1562 129.234 41.8203V41.8281C129.234 44.5078 130.789 46.1719 133.352 46.1719ZM133.297 39.1562C134.242 39.1562 134.922 39.7578 135.062 40.9141H131.508C131.656 39.7812 132.359 39.1562 133.297 39.1562ZM143.797 46H148.102C151.484 46 153.477 43.8984 153.477 40.3203V40.3047C153.477 36.7344 151.477 34.7266 148.102 34.7266H143.797V46ZM146.156 44.0469V36.6719H147.82C149.891 36.6719 151.07 37.9609 151.07 40.3125V40.3281C151.07 42.7656 149.93 44.0469 147.82 44.0469H146.156ZM156.992 36.5469C157.68 36.5469 158.211 36.0078 158.211 35.3594C158.211 34.7109 157.68 34.1719 156.992 34.1719C156.305 34.1719 155.773 34.7109 155.773 35.3594C155.773 36.0078 156.305 36.5469 156.992 36.5469ZM155.852 46H158.133V37.625H155.852V46ZM164.109 46.1719C166.266 46.1719 167.773 45.0938 167.773 43.4531V43.4453C167.773 42.2109 167.055 41.5234 165.305 41.1562L163.883 40.8516C163.039 40.6719 162.75 40.3906 162.75 39.9609V39.9531C162.75 39.4141 163.242 39.0625 164.031 39.0625C164.875 39.0625 165.367 39.5156 165.445 40.1172L165.453 40.1797H167.555V40.1016C167.5 38.6328 166.258 37.4531 164.031 37.4531C161.898 37.4531 160.523 38.4844 160.523 40.0781V40.0859C160.523 41.3359 161.344 42.1484 162.969 42.4922L164.391 42.7891C165.211 42.9688 165.492 43.2266 165.492 43.6719V43.6797C165.492 44.2188 164.969 44.5547 164.109 44.5547C163.195 44.5547 162.703 44.1719 162.555 43.5156L162.539 43.4453H160.312L160.32 43.5156C160.5 45.1016 161.789 46.1719 164.109 46.1719ZM173.227 46.1719C173.703 46.1719 174.07 46.125 174.328 46.0859V44.4141C174.188 44.4297 174.039 44.4531 173.836 44.4531C173.148 44.4531 172.797 44.1875 172.797 43.4062V39.3438H174.328V37.625H172.797V35.5781H170.492V37.625H169.328V39.3438H170.492V43.6562C170.492 45.4531 171.367 46.1719 173.227 46.1719ZM176.586 46H178.867V41.3125C178.867 40.0938 179.523 39.4219 180.648 39.4219C180.977 39.4219 181.289 39.4688 181.477 39.5469V37.5391C181.305 37.4922 181.07 37.4531 180.82 37.4531C179.844 37.4531 179.164 38.0547 178.914 39.0859H178.867V37.625H176.586V46ZM184.602 36.5469C185.289 36.5469 185.82 36.0078 185.82 35.3594C185.82 34.7109 185.289 34.1719 184.602 34.1719C183.914 34.1719 183.383 34.7109 183.383 35.3594C183.383 36.0078 183.914 36.5469 184.602 36.5469ZM183.461 46H185.742V37.625H183.461V46ZM193.234 46.1719C195.344 46.1719 196.648 44.5312 196.648 41.8125V41.8047C196.648 39.0781 195.344 37.4531 193.242 37.4531C192.047 37.4531 191.117 38.0625 190.656 39.0781H190.609V34.7266H188.328V46H190.609V44.5703H190.656C191.109 45.5625 192.031 46.1719 193.234 46.1719ZM192.477 44.2812C191.367 44.2812 190.609 43.3281 190.609 41.8125V41.8047C190.609 40.2969 191.375 39.3438 192.477 39.3438C193.609 39.3438 194.328 40.2734 194.328 41.8047V41.8125C194.328 43.3359 193.609 44.2812 192.477 44.2812ZM201.672 46.1719C202.938 46.1719 203.797 45.5781 204.227 44.6172H204.273V46H206.555V37.625H204.273V42.4375C204.273 43.5312 203.625 44.2812 202.602 44.2812C201.578 44.2812 201.062 43.6484 201.062 42.5547V37.625H198.781V43.0312C198.781 44.9922 199.828 46.1719 201.672 46.1719ZM212.367 46.1719C212.844 46.1719 213.211 46.125 213.469 46.0859V44.4141C213.328 44.4297 213.18 44.4531 212.977 44.4531C212.289 44.4531 211.938 44.1875 211.938 43.4062V39.3438H213.469V37.625H211.938V35.5781H209.633V37.625H208.469V39.3438H209.633V43.6562C209.633 45.4531 210.508 46.1719 212.367 46.1719ZM216.914 36.5469C217.602 36.5469 218.133 36.0078 218.133 35.3594C218.133 34.7109 217.602 34.1719 216.914 34.1719C216.227 34.1719 215.695 34.7109 215.695 35.3594C215.695 36.0078 216.227 36.5469 216.914 36.5469ZM215.773 46H218.055V37.625H215.773V46ZM224.43 46.1719C226.961 46.1719 228.578 44.5469 228.578 41.8125V41.7969C228.578 39.0859 226.93 37.4531 224.422 37.4531C221.922 37.4531 220.281 39.1016 220.281 41.7969V41.8125C220.281 44.5391 221.883 46.1719 224.43 46.1719ZM224.438 44.3828C223.312 44.3828 222.602 43.4531 222.602 41.8125V41.7969C222.602 40.1797 223.32 39.2422 224.422 39.2422C225.531 39.2422 226.258 40.1797 226.258 41.7969V41.8125C226.258 43.4453 225.547 44.3828 224.438 44.3828ZM230.758 46H233.039V41.1875C233.039 40.0938 233.688 39.3438 234.711 39.3438C235.734 39.3438 236.25 39.9688 236.25 41.0625V46H238.531V40.5938C238.531 38.6328 237.484 37.4531 235.641 37.4531C234.375 37.4531 233.516 38.0391 233.086 39H233.039V37.625H230.758V46Z" fill="#30404D"/>
<path fill-rule="evenodd" clip-rule="evenodd" d="M254 39C254 38.72 253.78 38.5 253.5 38.5H246.5C246.22 38.5 246 38.72 246 39C246 39.13 246.05 39.24 246.13 39.33L249.63 43.33C249.72 43.43 249.85 43.5 250 43.5C250.15 43.5 250.28 43.43 250.37 43.33L253.87 39.33C253.95 39.24 254 39.13 254 39Z" fill="#738694"/>
</g>
<g filter="url(#filter1_di_189_9515)">
<rect x="550" y="25" width="93" height="30" rx="3" fill="#F5F8FA"/>
<rect x="550" y="25" width="93" height="30" rx="3" fill="url(#paint0_linear_189_9515)" fill-opacity="0.8"/>
<g clip-path="url(#clip17_189_9515)">
<path d="M563.229 45.2324C565.328 45.2324 566.887 44.0635 567.215 42.2588V42.2451H565.971L565.957 42.2588C565.649 43.3936 564.604 44.0977 563.229 44.0977C561.329 44.0977 560.14 42.5459 560.14 40.0781V40.0645C560.14 37.5967 561.329 36.0381 563.223 36.0381C564.583 36.0381 565.636 36.8379 565.964 38.1025L565.971 38.1162H567.208L567.215 38.1025C566.921 36.209 565.301 34.9033 563.223 34.9033C560.543 34.9033 558.875 36.8857 558.875 40.0645V40.0781C558.875 43.25 560.55 45.2324 563.229 45.2324ZM571.152 45.1299C572.144 45.1299 572.916 44.6992 573.381 43.9131H573.49V45H574.68V39.9551C574.68 38.4238 573.675 37.501 571.877 37.501C570.305 37.501 569.184 38.2803 568.992 39.4355L568.985 39.4766H570.175L570.182 39.4561C570.373 38.8818 570.954 38.5537 571.836 38.5537C572.937 38.5537 573.49 39.0459 573.49 39.9551V40.625L571.378 40.7549C569.662 40.8574 568.691 41.6162 568.691 42.9287V42.9424C568.691 44.2822 569.751 45.1299 571.152 45.1299ZM569.908 42.915V42.9014C569.908 42.1699 570.4 41.7734 571.521 41.7051L573.49 41.582V42.252C573.49 43.3047 572.608 44.0977 571.398 44.0977C570.544 44.0977 569.908 43.6602 569.908 42.915ZM580.518 45.1299C582.384 45.1299 583.607 43.6191 583.607 41.3223V41.3086C583.607 38.998 582.391 37.501 580.518 37.501C579.506 37.501 578.624 38.0068 578.221 38.793H578.111V34.7051H576.922V45H578.111V43.8242H578.221C578.672 44.6445 579.492 45.1299 580.518 45.1299ZM580.244 44.0771C578.904 44.0771 578.084 43.0244 578.084 41.3223V41.3086C578.084 39.6064 578.904 38.5537 580.244 38.5537C581.591 38.5537 582.391 39.5928 582.391 41.3086V41.3223C582.391 43.0381 581.591 44.0771 580.244 44.0771ZM586.082 36.209C586.533 36.209 586.902 35.8398 586.902 35.3887C586.902 34.9375 586.533 34.5684 586.082 34.5684C585.631 34.5684 585.262 34.9375 585.262 35.3887C585.262 35.8398 585.631 36.209 586.082 36.209ZM585.48 45H586.67V37.6309H585.48V45ZM588.912 45H590.102V40.6387C590.102 39.3467 590.847 38.5537 592.022 38.5537C593.198 38.5537 593.745 39.1895 593.745 40.5156V45H594.935V40.2285C594.935 38.4785 594.012 37.501 592.357 37.501C591.271 37.501 590.58 37.959 590.211 38.7383H590.102V37.6309H588.912V45ZM598.059 39.7773C598.551 39.7773 598.947 39.374 598.947 38.8887C598.947 38.3965 598.551 38 598.059 38C597.573 38 597.17 38.3965 597.17 38.8887C597.17 39.374 597.573 39.7773 598.059 39.7773ZM598.059 45.0684C598.551 45.0684 598.947 44.665 598.947 44.1797C598.947 43.6875 598.551 43.291 598.059 43.291C597.573 43.291 597.17 43.6875 597.17 44.1797C597.17 44.665 597.573 45.0684 598.059 45.0684ZM607.998 45H610.062V41.3154L613.501 35.1357H611.266L609.099 39.2852H608.976L606.802 35.1357H604.566L607.998 41.3154V45Z" fill="#30404D"/>
<path fill-rule="evenodd" clip-rule="evenodd" d="M631 38.5C631 38.22 630.78 38 630.5 38H623.5C623.22 38 623 38.22 623 38.5C623 38.63 623.05 38.74 623.13 38.83L626.63 42.83C626.72 42.93 626.85 43 627 43C627.15 43 627.28 42.93 627.37 42.83L630.87 38.83C630.95 38.74 631 38.63 631 38.5Z" fill="#738694"/>
</g>
<rect x="550.5" y="25.5" width="92" height="29" rx="2.5" stroke="#10161A" stroke-opacity="0.2"/>
</g>
<path d="M27 16.5H649C650.381 16.5 651.5 17.6193 651.5 19V63.5H24.5V19C24.5 17.6193 25.6193 16.5 27 16.5Z" stroke="#D8E1E8"/>
<rect opacity="0.05" x="311" y="64" width="40" height="292" fill="black"/>
<g filter="url(#filter2_ddd_189_9515)">
<rect x="331" y="199" width="108" height="71" rx="3" fill="#394B59"/>
<g clip-path="url(#clip18_189_9515)">
<rect x="336" y="204" width="55" height="17" rx="2" fill="#A854A8"/>
<path d="M341.376 216H342.924L343.446 214.291H345.932L346.454 216H348.007L345.556 208.954H343.822L341.376 216ZM344.647 210.36H344.735L345.595 213.188H343.783L344.647 210.36ZM350.688 216.083C351.444 216.083 352.016 215.746 352.294 215.165H352.382V216H353.808V208.568H352.382V211.483H352.294C352.025 210.897 351.425 210.536 350.688 210.536C349.325 210.536 348.505 211.576 348.505 213.305V213.314C348.505 215.033 349.345 216.083 350.688 216.083ZM351.171 214.901C350.419 214.901 349.955 214.306 349.955 213.314V213.305C349.955 212.323 350.419 211.718 351.171 211.718C351.923 211.718 352.396 212.323 352.396 213.31V213.319C352.396 214.306 351.928 214.901 351.171 214.901ZM356.005 209.799C356.444 209.799 356.806 209.447 356.806 209.008C356.806 208.563 356.444 208.212 356.005 208.212C355.565 208.212 355.199 208.563 355.199 209.008C355.199 209.447 355.565 209.799 356.005 209.799ZM354.809 217.831C356.054 217.831 356.718 217.274 356.718 216.176V210.624H355.292V216.137C355.292 216.581 355.097 216.747 354.608 216.747C354.545 216.747 354.481 216.747 354.428 216.742V217.816C354.511 217.821 354.682 217.831 354.809 217.831ZM359.931 216.112C360.697 216.112 361.244 215.756 361.488 215.17H361.576V216H363.002V210.624H361.576V213.729C361.576 214.457 361.195 214.931 360.492 214.931C359.818 214.931 359.53 214.535 359.53 213.773V210.624H358.104V214.101C358.104 215.38 358.725 216.112 359.931 216.112ZM366.571 216.112C367.948 216.112 368.93 215.419 368.93 214.354V214.35C368.93 213.554 368.427 213.104 367.353 212.875L366.459 212.685C365.902 212.562 365.702 212.396 365.702 212.108V212.104C365.702 211.742 366.054 211.513 366.547 211.513C367.079 211.513 367.396 211.781 367.475 212.069L367.479 212.094H368.803V212.074C368.744 211.21 367.963 210.507 366.552 210.507C365.209 210.507 364.311 211.181 364.311 212.191V212.196C364.311 213.002 364.818 213.505 365.844 213.725L366.742 213.915C367.289 214.037 367.504 214.218 367.504 214.506V214.516C367.504 214.872 367.133 215.106 366.586 215.106C366.024 215.106 365.697 214.867 365.585 214.535L365.575 214.516H364.174L364.179 214.535C364.281 215.458 365.111 216.112 366.571 216.112ZM372.299 216.02C372.572 216.02 372.836 215.99 373.012 215.956V214.896C372.875 214.911 372.777 214.921 372.592 214.921C372.108 214.921 371.903 214.706 371.903 214.223V211.698H373.012V210.624H371.903V209.34H370.463V210.624H369.633V211.698H370.463V214.55C370.463 215.595 370.99 216.02 372.299 216.02ZM376.522 216.112C378.095 216.112 378.788 215.204 378.954 214.53L378.964 214.481H377.636L377.621 214.511C377.523 214.716 377.177 215.048 376.552 215.048C375.795 215.048 375.321 214.535 375.307 213.651H379.008V213.207C379.008 211.581 378.031 210.507 376.464 210.507C374.896 210.507 373.896 211.605 373.896 213.314V213.319C373.896 215.043 374.887 216.112 376.522 216.112ZM376.488 211.576C377.108 211.576 377.553 211.977 377.641 212.758H375.321C375.409 211.996 375.868 211.576 376.488 211.576ZM382.094 216.083C382.851 216.083 383.422 215.746 383.7 215.165H383.788V216H385.214V208.568H383.788V211.483H383.7C383.432 210.897 382.831 210.536 382.094 210.536C380.731 210.536 379.911 211.576 379.911 213.305V213.314C379.911 215.033 380.751 216.083 382.094 216.083ZM382.577 214.901C381.825 214.901 381.361 214.306 381.361 213.314V213.305C381.361 212.323 381.825 211.718 382.577 211.718C383.329 211.718 383.803 212.323 383.803 213.31V213.319C383.803 214.306 383.334 214.901 382.577 214.901Z" fill="white"/>
<path d="M398.806 216H399.899V208.954H398.806L396.95 210.272V211.347L398.723 210.082H398.806V216ZM402.194 216H403.342L406.408 209.901V208.954H401.608V209.877H405.3V209.955L402.194 216ZM407.438 216.073C407.844 216.073 408.151 215.761 408.151 215.365C408.151 214.965 407.844 214.652 407.438 214.652C407.033 214.652 406.721 214.965 406.721 215.365C406.721 215.761 407.033 216.073 407.438 216.073ZM409.611 216H414.357V215.067H411.101V214.97L412.595 213.48C413.874 212.211 414.245 211.596 414.245 210.795V210.78C414.245 209.618 413.278 208.783 411.965 208.783C410.549 208.783 409.553 209.691 409.548 210.98L409.558 210.99H410.583L410.588 210.976C410.588 210.204 411.115 209.687 411.906 209.687C412.678 209.687 413.151 210.194 413.151 210.883V210.897C413.151 211.469 412.883 211.83 411.95 212.802L409.611 215.258V216ZM417.199 212.719C418.146 212.719 418.723 211.972 418.723 210.785V210.78C418.723 209.594 418.146 208.856 417.199 208.856C416.252 208.856 415.676 209.594 415.676 210.78V210.785C415.676 211.972 416.252 212.719 417.199 212.719ZM417.927 216L422.702 208.954H421.789L417.014 216H417.927ZM417.199 212.064C416.735 212.064 416.472 211.591 416.472 210.785V210.78C416.472 209.979 416.735 209.511 417.199 209.511C417.663 209.511 417.932 209.979 417.932 210.78V210.785C417.932 211.591 417.663 212.064 417.199 212.064ZM422.512 216.098C423.459 216.098 424.035 215.355 424.035 214.169V214.164C424.035 212.978 423.459 212.235 422.512 212.235C421.564 212.235 420.988 212.978 420.988 214.164V214.169C420.988 215.355 421.564 216.098 422.512 216.098ZM422.512 215.443C422.048 215.443 421.784 214.97 421.784 214.169V214.164C421.784 213.358 422.048 212.89 422.512 212.89C422.976 212.89 423.239 213.358 423.239 214.164V214.169C423.239 214.97 422.976 215.443 422.512 215.443Z" fill="white"/>
</g>
<g clip-path="url(#clip19_189_9515)">
<rect x="336" y="226" width="53" height="17" rx="2" fill="#8A9BA8"/>
<path d="M342.041 238H345.205C346.709 238 347.642 237.224 347.642 235.988V235.979C347.642 235.075 346.963 234.377 346.03 234.304V234.216C346.753 234.108 347.305 233.459 347.305 232.717V232.707C347.305 231.623 346.489 230.954 345.122 230.954H342.041V238ZM344.746 232.048C345.449 232.048 345.854 232.39 345.854 232.961V232.971C345.854 233.552 345.42 233.884 344.624 233.884H343.516V232.048H344.746ZM344.795 234.855C345.664 234.855 346.138 235.207 346.138 235.861V235.871C346.138 236.54 345.679 236.901 344.829 236.901H343.516V234.855H344.795ZM350.298 238.083C351.001 238.083 351.567 237.785 351.841 237.287H351.929V238H353.335V234.328C353.335 233.181 352.529 232.507 351.104 232.507C349.751 232.507 348.862 233.132 348.75 234.074L348.745 234.118H350.063L350.073 234.099C350.186 233.781 350.513 233.601 351.025 233.601C351.611 233.601 351.929 233.864 351.929 234.328V234.772L350.63 234.851C349.292 234.929 348.545 235.495 348.545 236.462V236.472C348.545 237.448 349.272 238.083 350.298 238.083ZM349.937 236.384V236.374C349.937 235.983 350.234 235.754 350.845 235.715L351.929 235.646V236.042C351.929 236.608 351.436 237.043 350.776 237.043C350.283 237.043 349.937 236.794 349.937 236.384ZM356.87 238.112C358.247 238.112 359.229 237.419 359.229 236.354V236.35C359.229 235.554 358.726 235.104 357.651 234.875L356.758 234.685C356.201 234.562 356.001 234.396 356.001 234.108V234.104C356.001 233.742 356.353 233.513 356.846 233.513C357.378 233.513 357.695 233.781 357.773 234.069L357.778 234.094H359.102V234.074C359.043 233.21 358.262 232.507 356.851 232.507C355.508 232.507 354.609 233.181 354.609 234.191V234.196C354.609 235.002 355.117 235.505 356.143 235.725L357.041 235.915C357.588 236.037 357.803 236.218 357.803 236.506V236.516C357.803 236.872 357.432 237.106 356.885 237.106C356.323 237.106 355.996 236.867 355.884 236.535L355.874 236.516H354.473L354.478 236.535C354.58 237.458 355.41 238.112 356.87 238.112ZM362.759 238.112C364.331 238.112 365.024 237.204 365.19 236.53L365.2 236.481H363.872L363.857 236.511C363.76 236.716 363.413 237.048 362.788 237.048C362.031 237.048 361.558 236.535 361.543 235.651H365.244V235.207C365.244 233.581 364.268 232.507 362.7 232.507C361.133 232.507 360.132 233.605 360.132 235.314V235.319C360.132 237.043 361.123 238.112 362.759 238.112ZM362.725 233.576C363.345 233.576 363.789 233.977 363.877 234.758H361.558C361.646 233.996 362.104 233.576 362.725 233.576ZM366.46 238H367.886V230.568H366.46V238ZM370.088 231.799C370.527 231.799 370.889 231.447 370.889 231.008C370.889 230.563 370.527 230.212 370.088 230.212C369.648 230.212 369.282 230.563 369.282 231.008C369.282 231.447 369.648 231.799 370.088 231.799ZM369.37 238H370.796V232.624H369.37V238ZM372.231 238H373.657V234.89C373.657 234.162 374.058 233.688 374.717 233.688C375.391 233.688 375.703 234.089 375.703 234.846V238H377.129V234.523C377.129 233.239 376.484 232.507 375.288 232.507C374.521 232.507 373.989 232.873 373.745 233.454H373.657V232.624H372.231V238ZM380.874 238.112C382.446 238.112 383.14 237.204 383.306 236.53L383.315 236.481H381.987L381.973 236.511C381.875 236.716 381.528 237.048 380.903 237.048C380.146 237.048 379.673 236.535 379.658 235.651H383.359V235.207C383.359 233.581 382.383 232.507 380.815 232.507C379.248 232.507 378.247 233.605 378.247 235.314V235.319C378.247 237.043 379.238 238.112 380.874 238.112ZM380.84 233.576C381.46 233.576 381.904 233.977 381.992 234.758H379.673C379.761 233.996 380.22 233.576 380.84 233.576Z" fill="white"/>
<path d="M396.622 238H397.716V230.954H396.622L394.767 232.272V233.347L396.539 232.082H396.622V238ZM402.154 238.171C403.639 238.171 404.684 237.175 404.684 235.729V235.72C404.684 234.367 403.736 233.381 402.413 233.381C401.764 233.381 401.212 233.654 400.914 234.128H400.831L401.046 231.882H404.283V230.954H400.187L399.835 235.046H400.777C400.86 234.885 400.973 234.748 401.1 234.636C401.378 234.382 401.744 234.255 402.174 234.255C403.023 234.255 403.639 234.87 403.639 235.739V235.749C403.639 236.633 403.033 237.253 402.164 237.253C401.393 237.253 400.831 236.76 400.738 236.14L400.733 236.101H399.708L399.713 236.164C399.811 237.307 400.768 238.171 402.154 238.171ZM406.515 238.073C406.92 238.073 407.228 237.761 407.228 237.365C407.228 236.965 406.92 236.652 406.515 236.652C406.109 236.652 405.797 236.965 405.797 237.365C405.797 237.761 406.109 238.073 406.515 238.073ZM411.036 238.171C412.516 238.171 413.585 237.136 413.585 235.72V235.71C413.585 234.362 412.623 233.366 411.28 233.366C410.318 233.366 409.684 233.869 409.425 234.436H409.332C409.332 234.382 409.332 234.328 409.337 234.274C409.391 232.868 409.884 231.711 411.07 231.711C411.734 231.711 412.193 232.053 412.389 232.59L412.408 232.639H413.492L413.482 232.58C413.248 231.516 412.32 230.783 411.075 230.783C409.332 230.783 408.292 232.189 408.292 234.572V234.582C408.292 237.175 409.62 238.171 411.036 238.171ZM409.547 235.72V235.715C409.547 234.865 410.191 234.25 411.036 234.25C411.891 234.25 412.506 234.875 412.506 235.739V235.749C412.506 236.594 411.852 237.253 411.026 237.253C410.196 237.253 409.547 236.579 409.547 235.72ZM416.383 234.719C417.33 234.719 417.906 233.972 417.906 232.785V232.78C417.906 231.594 417.33 230.856 416.383 230.856C415.436 230.856 414.859 231.594 414.859 232.78V232.785C414.859 233.972 415.436 234.719 416.383 234.719ZM417.11 238L421.886 230.954H420.973L416.197 238H417.11ZM416.383 234.064C415.919 234.064 415.655 233.591 415.655 232.785V232.78C415.655 231.979 415.919 231.511 416.383 231.511C416.847 231.511 417.115 231.979 417.115 232.78V232.785C417.115 233.591 416.847 234.064 416.383 234.064ZM421.695 238.098C422.643 238.098 423.219 237.355 423.219 236.169V236.164C423.219 234.978 422.643 234.235 421.695 234.235C420.748 234.235 420.172 234.978 420.172 236.164V236.169C420.172 237.355 420.748 238.098 421.695 238.098ZM421.695 237.443C421.231 237.443 420.968 236.97 420.968 236.169V236.164C420.968 235.358 421.231 234.89 421.695 234.89C422.159 234.89 422.423 235.358 422.423 236.164V236.169C422.423 236.97 422.159 237.443 421.695 237.443Z" fill="white"/>
</g>
<g clip-path="url(#clip20_189_9515)">
<rect x="336" y="248" width="59" height="17" rx="2" fill="#634DBF"/>
<path d="M342.336 260H343.811V257.778H345.241C346.726 257.778 347.717 256.821 347.717 255.371V255.361C347.717 253.911 346.726 252.954 345.241 252.954H342.336V260ZM344.88 254.121C345.725 254.121 346.223 254.565 346.223 255.366V255.376C346.223 256.177 345.725 256.626 344.88 256.626H343.811V254.121H344.88ZM348.933 260H350.358V256.992C350.358 256.23 350.871 255.767 351.682 255.767C351.901 255.767 352.121 255.801 352.336 255.85V254.604C352.194 254.565 351.994 254.536 351.804 254.536C351.105 254.536 350.617 254.878 350.446 255.459H350.358V254.624H348.933V260ZM355.549 260.112C357.204 260.112 358.2 259.067 358.2 257.314V257.305C358.2 255.566 357.189 254.507 355.549 254.507C353.908 254.507 352.897 255.571 352.897 257.305V257.314C352.897 259.062 353.894 260.112 355.549 260.112ZM355.549 258.994C354.787 258.994 354.357 258.374 354.357 257.314V257.305C354.357 256.255 354.792 255.625 355.549 255.625C356.301 255.625 356.74 256.255 356.74 257.305V257.314C356.74 258.374 356.306 258.994 355.549 258.994ZM359.362 261.782H360.788V259.141H360.876C361.149 259.727 361.75 260.083 362.487 260.083C363.85 260.083 364.67 259.043 364.67 257.314V257.305C364.67 255.591 363.83 254.536 362.487 254.536C361.726 254.536 361.154 254.878 360.876 255.454H360.788V254.624H359.362V261.782ZM361.999 258.901C361.252 258.901 360.773 258.301 360.773 257.314V257.305C360.773 256.318 361.247 255.718 361.999 255.718C362.756 255.718 363.22 256.318 363.22 257.305V257.314C363.22 258.301 362.751 258.901 361.999 258.901ZM368.225 260.112C369.88 260.112 370.876 259.067 370.876 257.314V257.305C370.876 255.566 369.865 254.507 368.225 254.507C366.584 254.507 365.573 255.571 365.573 257.305V257.314C365.573 259.062 366.569 260.112 368.225 260.112ZM368.225 258.994C367.463 258.994 367.033 258.374 367.033 257.314V257.305C367.033 256.255 367.468 255.625 368.225 255.625C368.977 255.625 369.416 256.255 369.416 257.305V257.314C369.416 258.374 368.981 258.994 368.225 258.994ZM374.177 260.112C375.554 260.112 376.535 259.419 376.535 258.354V258.35C376.535 257.554 376.032 257.104 374.958 256.875L374.064 256.685C373.508 256.562 373.308 256.396 373.308 256.108V256.104C373.308 255.742 373.659 255.513 374.152 255.513C374.685 255.513 375.002 255.781 375.08 256.069L375.085 256.094H376.408V256.074C376.35 255.21 375.568 254.507 374.157 254.507C372.814 254.507 371.916 255.181 371.916 256.191V256.196C371.916 257.002 372.424 257.505 373.449 257.725L374.348 257.915C374.895 258.037 375.109 258.218 375.109 258.506V258.516C375.109 258.872 374.738 259.106 374.191 259.106C373.63 259.106 373.303 258.867 373.19 258.535L373.181 258.516H371.779L371.784 258.535C371.887 259.458 372.717 260.112 374.177 260.112ZM380.065 260.112C381.638 260.112 382.331 259.204 382.497 258.53L382.507 258.481H381.179L381.164 258.511C381.066 258.716 380.72 259.048 380.095 259.048C379.338 259.048 378.864 258.535 378.85 257.651H382.551V257.207C382.551 255.581 381.574 254.507 380.007 254.507C378.439 254.507 377.438 255.605 377.438 257.314V257.319C377.438 259.043 378.43 260.112 380.065 260.112ZM380.031 255.576C380.651 255.576 381.096 255.977 381.184 256.758H378.864C378.952 255.996 379.411 255.576 380.031 255.576ZM385.637 260.083C386.394 260.083 386.965 259.746 387.243 259.165H387.331V260H388.757V252.568H387.331V255.483H387.243C386.975 254.897 386.374 254.536 385.637 254.536C384.274 254.536 383.454 255.576 383.454 257.305V257.314C383.454 259.033 384.294 260.083 385.637 260.083ZM386.12 258.901C385.368 258.901 384.904 258.306 384.904 257.314V257.305C384.904 256.323 385.368 255.718 386.12 255.718C386.872 255.718 387.346 256.323 387.346 257.31V257.319C387.346 258.306 386.877 258.901 386.12 258.901Z" fill="white"/>
<path d="M403.133 260.703H403.709V259.888C404.944 259.795 405.916 259.116 405.916 257.925V257.915C405.916 256.88 405.213 256.353 403.929 256.055L403.709 256.001V253.955C404.329 254.043 404.759 254.414 404.827 255.02V255.029L405.838 255.024V255.02C405.794 253.921 404.92 253.169 403.709 253.066V252.246H403.133V253.066C401.907 253.164 401.038 253.887 401.038 254.976V254.985C401.038 255.972 401.707 256.528 402.942 256.816L403.133 256.865V258.999C402.347 258.916 401.98 258.491 401.897 257.925V257.915L400.882 257.92V257.925C400.921 259.087 401.897 259.79 403.133 259.888V260.703ZM402.068 254.907V254.897C402.068 254.453 402.435 254.048 403.133 253.955V255.864C402.361 255.669 402.068 255.342 402.068 254.907ZM404.881 258.013V258.022C404.881 258.54 404.534 258.936 403.709 259.004V256.997C404.607 257.212 404.881 257.51 404.881 258.013ZM410.628 260H411.683V258.599H412.654V257.671H411.683V252.954H410.125C409.153 254.414 408.118 256.079 407.19 257.671V258.599H410.628V260ZM408.24 257.69V257.622C408.963 256.387 409.822 255.015 410.579 253.877H410.643V257.69H408.24ZM414.285 260H415.433L418.499 253.901V252.954H413.699V253.877H417.391V253.955L414.285 260ZM419.529 260.073C419.935 260.073 420.242 259.761 420.242 259.365C420.242 258.965 419.935 258.652 419.529 258.652C419.124 258.652 418.812 258.965 418.812 259.365C418.812 259.761 419.124 260.073 419.529 260.073ZM424.051 260.171C425.53 260.171 426.6 259.136 426.6 257.72V257.71C426.6 256.362 425.638 255.366 424.295 255.366C423.333 255.366 422.698 255.869 422.439 256.436H422.347C422.347 256.382 422.347 256.328 422.352 256.274C422.405 254.868 422.898 253.711 424.085 253.711C424.749 253.711 425.208 254.053 425.403 254.59L425.423 254.639H426.507L426.497 254.58C426.263 253.516 425.335 252.783 424.09 252.783C422.347 252.783 421.307 254.189 421.307 256.572V256.582C421.307 259.175 422.635 260.171 424.051 260.171ZM422.562 257.72V257.715C422.562 256.865 423.206 256.25 424.051 256.25C424.905 256.25 425.521 256.875 425.521 257.739V257.749C425.521 258.594 424.866 259.253 424.041 259.253C423.211 259.253 422.562 258.579 422.562 257.72ZM430.521 260.132C432.088 260.132 433.191 259.292 433.191 258.096V258.086C433.191 257.197 432.552 256.489 431.629 256.289V256.265C432.42 256.04 432.933 255.449 432.933 254.702V254.692C432.933 253.613 431.927 252.822 430.521 252.822C429.119 252.822 428.108 253.613 428.108 254.692V254.702C428.108 255.449 428.626 256.04 429.417 256.265V256.289C428.494 256.489 427.854 257.197 427.854 258.086V258.096C427.854 259.292 428.958 260.132 430.521 260.132ZM430.521 255.898C429.734 255.898 429.192 255.439 429.192 254.795V254.785C429.192 254.141 429.734 253.691 430.521 253.691C431.307 253.691 431.849 254.141 431.849 254.785V254.795C431.849 255.439 431.312 255.898 430.521 255.898ZM430.521 259.253C429.622 259.253 428.982 258.74 428.982 258.027V258.018C428.982 257.295 429.617 256.772 430.521 256.772C431.429 256.772 432.063 257.295 432.063 258.018V258.027C432.063 258.74 431.424 259.253 430.521 259.253Z" fill="white"/>
</g>
</g>
<g filter="url(#filter3_d_189_9515)">
<path fill-rule="evenodd" clip-rule="evenodd" d="M330.893 200.903C330.609 200.544 330.264 199.81 329.65 198.919C329.302 198.415 328.439 197.466 328.182 196.984C327.959 196.558 327.983 196.367 328.036 196.014C328.13 195.386 328.774 194.897 329.461 194.963C329.98 195.012 330.42 195.355 330.816 195.679C331.055 195.874 331.349 196.253 331.526 196.467C331.689 196.663 331.729 196.744 331.903 196.976C332.133 197.283 332.205 197.435 332.117 197.097C332.046 196.601 331.93 195.754 331.762 195.005C331.634 194.437 331.603 194.348 331.481 193.912C331.352 193.448 331.286 193.123 331.165 192.631C331.081 192.283 330.93 191.572 330.889 191.172C330.832 190.625 330.802 189.733 331.153 189.323C331.428 189.002 332.059 188.905 332.45 189.103C332.962 189.362 333.253 190.106 333.386 190.403C333.625 190.937 333.773 191.554 333.902 192.364C334.066 193.395 334.368 194.826 334.378 195.127C334.402 194.758 334.31 193.981 334.374 193.627C334.432 193.306 334.702 192.933 335.04 192.832C335.326 192.747 335.661 192.716 335.956 192.777C336.269 192.841 336.599 193.065 336.722 193.276C337.084 193.9 337.091 195.175 337.106 195.107C337.192 194.731 337.177 193.878 337.39 193.523C337.53 193.289 337.887 193.078 338.077 193.044C338.371 192.992 338.732 192.976 339.041 193.036C339.29 193.085 339.627 193.381 339.718 193.523C339.936 193.867 340.06 194.84 340.097 195.181C340.112 195.322 340.171 194.789 340.39 194.445C340.796 193.806 342.233 193.682 342.288 195.084C342.313 195.738 342.308 195.708 342.308 196.148C342.308 196.665 342.296 196.976 342.268 197.35C342.237 197.75 342.151 198.654 342.026 199.092C341.94 199.393 341.655 200.07 341.374 200.476C341.374 200.476 340.3 201.726 340.183 202.289C340.065 202.851 340.104 202.855 340.081 203.254C340.058 203.652 340.202 204.176 340.202 204.176C340.202 204.176 339.4 204.28 338.968 204.211C338.577 204.148 338.093 203.37 337.968 203.132C337.796 202.804 337.429 202.867 337.286 203.109C337.061 203.492 336.577 204.179 336.235 204.222C335.567 204.306 334.181 204.253 333.096 204.242C333.096 204.242 333.281 203.231 332.869 202.884C332.564 202.625 332.039 202.1 331.725 201.824L330.893 200.903Z" fill="white"/>
<path fill-rule="evenodd" clip-rule="evenodd" d="M330.893 200.903C330.609 200.544 330.264 199.81 329.65 198.919C329.302 198.415 328.439 197.466 328.182 196.984C327.959 196.558 327.983 196.367 328.036 196.014C328.13 195.386 328.774 194.897 329.461 194.963C329.98 195.012 330.42 195.355 330.816 195.679C331.055 195.874 331.349 196.253 331.526 196.467C331.689 196.663 331.729 196.744 331.903 196.976C332.133 197.283 332.205 197.435 332.117 197.097C332.046 196.601 331.93 195.754 331.762 195.005C331.634 194.437 331.603 194.348 331.481 193.912C331.352 193.448 331.286 193.123 331.165 192.631C331.081 192.283 330.93 191.572 330.889 191.172C330.832 190.625 330.802 189.733 331.153 189.323C331.428 189.002 332.059 188.905 332.45 189.103C332.962 189.362 333.253 190.106 333.386 190.403C333.625 190.937 333.773 191.554 333.902 192.364C334.066 193.395 334.368 194.826 334.378 195.127C334.402 194.758 334.31 193.981 334.374 193.627C334.432 193.306 334.702 192.933 335.04 192.832C335.326 192.747 335.661 192.716 335.956 192.777C336.269 192.841 336.599 193.065 336.722 193.276C337.084 193.9 337.091 195.175 337.106 195.107C337.192 194.731 337.177 193.878 337.39 193.523C337.53 193.289 337.887 193.078 338.077 193.044C338.371 192.992 338.732 192.976 339.041 193.036C339.29 193.085 339.627 193.381 339.718 193.523C339.936 193.867 340.06 194.84 340.097 195.181C340.112 195.322 340.171 194.789 340.39 194.445C340.796 193.806 342.233 193.682 342.288 195.084C342.313 195.738 342.308 195.708 342.308 196.148C342.308 196.665 342.296 196.976 342.268 197.35C342.237 197.75 342.151 198.654 342.026 199.092C341.94 199.393 341.655 200.07 341.374 200.476C341.374 200.476 340.3 201.726 340.183 202.289C340.065 202.851 340.104 202.855 340.081 203.254C340.058 203.652 340.202 204.176 340.202 204.176C340.202 204.176 339.4 204.28 338.968 204.211C338.577 204.148 338.093 203.37 337.968 203.132C337.796 202.804 337.429 202.867 337.286 203.109C337.061 203.492 336.577 204.179 336.235 204.222C335.567 204.306 334.181 204.253 333.096 204.242C333.096 204.242 333.281 203.231 332.869 202.884C332.564 202.625 332.039 202.1 331.725 201.824L330.893 200.903V200.903Z" stroke="black" stroke-width="0.75" stroke-linecap="round" stroke-linejoin="round"/>
<path d="M339.129 201.257V197.798" stroke="black" stroke-width="0.75" stroke-linecap="round"/>
<path d="M337.114 201.269L337.098 197.796" stroke="black" stroke-width="0.75" stroke-linecap="round"/>
<path d="M335.117 197.827L335.138 201.253" stroke="black" stroke-width="0.75" stroke-linecap="round"/>
</g>
<g clip-path="url(#clip21_189_9515)">
<rect x="24" y="356" width="628" height="20" fill="white"/>
<g clip-path="url(#clip22_189_9515)">
<path d="M24.292 370H25.4395L28.5059 363.901V362.954H23.7061V363.877H27.3975V363.955L24.292 370ZM31.9287 362.617H30.9326L28.7793 371.768H29.7754L31.9287 362.617ZM34.4385 370H35.5322V362.954H34.4385L32.583 364.272V365.347L34.3555 364.082H34.4385V370Z" fill="#30404D"/>
<path d="M64.1182 370H65.2656L68.332 363.901V362.954H63.5322V363.877H67.2236V363.955L64.1182 370ZM71.7549 362.617H70.7588L68.6055 371.768H69.6016L71.7549 362.617ZM72.5215 370H77.2676V369.067H74.0107V368.97L75.5049 367.48C76.7842 366.211 77.1553 365.596 77.1553 364.795V364.78C77.1553 363.618 76.1885 362.783 74.875 362.783C73.459 362.783 72.4629 363.691 72.458 364.98L72.4678 364.99H73.4932L73.498 364.976C73.498 364.204 74.0254 363.687 74.8164 363.687C75.5879 363.687 76.0615 364.194 76.0615 364.883V364.897C76.0615 365.469 75.793 365.83 74.8604 366.802L72.5215 369.258V370Z" fill="#30404D"/>
<path d="M104.543 370H105.637V362.954H104.543L102.688 364.272V365.347L104.46 364.082H104.543V370ZM107.932 370H109.079L112.146 363.901V362.954H107.346V363.877H111.037V363.955L107.932 370ZM115.798 370.171C117.282 370.171 118.327 369.175 118.327 367.729V367.72C118.327 366.367 117.38 365.381 116.057 365.381C115.407 365.381 114.855 365.654 114.558 366.128H114.475L114.689 363.882H117.927V362.954H113.83L113.479 367.046H114.421C114.504 366.885 114.616 366.748 114.743 366.636C115.021 366.382 115.388 366.255 115.817 366.255C116.667 366.255 117.282 366.87 117.282 367.739V367.749C117.282 368.633 116.677 369.253 115.808 369.253C115.036 369.253 114.475 368.76 114.382 368.14L114.377 368.101H113.352L113.356 368.164C113.454 369.307 114.411 370.171 115.798 370.171Z" fill="#30404D"/>
<path d="M141.177 370H145.923V369.067H142.666V368.97L144.16 367.48C145.439 366.211 145.811 365.596 145.811 364.795V364.78C145.811 363.618 144.844 362.783 143.53 362.783C142.114 362.783 141.118 363.691 141.113 364.98L141.123 364.99H142.148L142.153 364.976C142.153 364.204 142.681 363.687 143.472 363.687C144.243 363.687 144.717 364.194 144.717 364.883V364.897C144.717 365.469 144.448 365.83 143.516 366.802L141.177 369.258V370ZM149.844 370.171C151.465 370.171 152.446 368.75 152.446 366.479V366.47C152.446 364.199 151.465 362.783 149.844 362.783C148.218 362.783 147.241 364.199 147.241 366.47V366.479C147.241 368.75 148.218 370.171 149.844 370.171ZM149.844 369.263C148.896 369.263 148.345 368.203 148.345 366.479V366.47C148.345 364.746 148.896 363.696 149.844 363.696C150.786 363.696 151.343 364.746 151.343 366.47V366.479C151.343 368.203 150.786 369.263 149.844 369.263ZM156.338 370.171C157.959 370.171 158.94 368.75 158.94 366.479V366.47C158.94 364.199 157.959 362.783 156.338 362.783C154.712 362.783 153.735 364.199 153.735 366.47V366.479C153.735 368.75 154.712 370.171 156.338 370.171ZM156.338 369.263C155.391 369.263 154.839 368.203 154.839 366.479V366.47C154.839 364.746 155.391 363.696 156.338 363.696C157.28 363.696 157.837 364.746 157.837 366.47V366.479C157.837 368.203 157.28 369.263 156.338 369.263Z" fill="#30404D"/>
<path d="M181.906 370H186.652V369.067H183.396V368.97L184.89 367.48C186.169 366.211 186.54 365.596 186.54 364.795V364.78C186.54 363.618 185.573 362.783 184.26 362.783C182.844 362.783 181.848 363.691 181.843 364.98L181.853 364.99H182.878L182.883 364.976C182.883 364.204 183.41 363.687 184.201 363.687C184.973 363.687 185.446 364.194 185.446 364.883V364.897C185.446 365.469 185.178 365.83 184.245 366.802L181.906 369.258V370ZM188.088 370H192.834V369.067H189.577V368.97L191.071 367.48C192.351 366.211 192.722 365.596 192.722 364.795V364.78C192.722 363.618 191.755 362.783 190.441 362.783C189.025 362.783 188.029 363.691 188.024 364.98L188.034 364.99H189.06L189.064 364.976C189.064 364.204 189.592 363.687 190.383 363.687C191.154 363.687 191.628 364.194 191.628 364.883V364.897C191.628 365.469 191.359 365.83 190.427 366.802L188.088 369.258V370ZM196.711 370.171C198.195 370.171 199.24 369.175 199.24 367.729V367.72C199.24 366.367 198.293 365.381 196.97 365.381C196.32 365.381 195.769 365.654 195.471 366.128H195.388L195.603 363.882H198.84V362.954H194.743L194.392 367.046H195.334C195.417 366.885 195.529 366.748 195.656 366.636C195.935 366.382 196.301 366.255 196.73 366.255C197.58 366.255 198.195 366.87 198.195 367.739V367.749C198.195 368.633 197.59 369.253 196.721 369.253C195.949 369.253 195.388 368.76 195.295 368.14L195.29 368.101H194.265L194.27 368.164C194.367 369.307 195.324 370.171 196.711 370.171Z" fill="#30404D"/>
<path d="M221.25 370H225.996V369.067H222.739V368.97L224.233 367.48C225.513 366.211 225.884 365.596 225.884 364.795V364.78C225.884 363.618 224.917 362.783 223.604 362.783C222.188 362.783 221.191 363.691 221.187 364.98L221.196 364.99H222.222L222.227 364.976C222.227 364.204 222.754 363.687 223.545 363.687C224.316 363.687 224.79 364.194 224.79 364.883V364.897C224.79 365.469 224.521 365.83 223.589 366.802L221.25 369.258V370ZM229.873 370.171C231.357 370.171 232.402 369.175 232.402 367.729V367.72C232.402 366.367 231.455 365.381 230.132 365.381C229.482 365.381 228.931 365.654 228.633 366.128H228.55L228.765 363.882H232.002V362.954H227.905L227.554 367.046H228.496C228.579 366.885 228.691 366.748 228.818 366.636C229.097 366.382 229.463 366.255 229.893 366.255C230.742 366.255 231.357 366.87 231.357 367.739V367.749C231.357 368.633 230.752 369.253 229.883 369.253C229.111 369.253 228.55 368.76 228.457 368.14L228.452 368.101H227.427L227.432 368.164C227.529 369.307 228.486 370.171 229.873 370.171ZM236.265 370.171C237.886 370.171 238.867 368.75 238.867 366.479V366.47C238.867 364.199 237.886 362.783 236.265 362.783C234.639 362.783 233.662 364.199 233.662 366.47V366.479C233.662 368.75 234.639 370.171 236.265 370.171ZM236.265 369.263C235.317 369.263 234.766 368.203 234.766 366.479V366.47C234.766 364.746 235.317 363.696 236.265 363.696C237.207 363.696 237.764 364.746 237.764 366.47V366.479C237.764 368.203 237.207 369.263 236.265 369.263Z" fill="#30404D"/>
<path d="M262.136 370H266.882V369.067H263.625V368.97L265.119 367.48C266.398 366.211 266.77 365.596 266.77 364.795V364.78C266.77 363.618 265.803 362.783 264.489 362.783C263.073 362.783 262.077 363.691 262.072 364.98L262.082 364.99H263.107L263.112 364.976C263.112 364.204 263.64 363.687 264.431 363.687C265.202 363.687 265.676 364.194 265.676 364.883V364.897C265.676 365.469 265.407 365.83 264.475 366.802L262.136 369.258V370ZM268.615 370H269.763L272.829 363.901V362.954H268.029V363.877H271.721V363.955L268.615 370ZM276.481 370.171C277.966 370.171 279.011 369.175 279.011 367.729V367.72C279.011 366.367 278.063 365.381 276.74 365.381C276.091 365.381 275.539 365.654 275.241 366.128H275.158L275.373 363.882H278.61V362.954H274.514L274.162 367.046H275.104C275.188 366.885 275.3 366.748 275.427 366.636C275.705 366.382 276.071 366.255 276.501 366.255C277.351 366.255 277.966 366.87 277.966 367.739V367.749C277.966 368.633 277.36 369.253 276.491 369.253C275.72 369.253 275.158 368.76 275.065 368.14L275.061 368.101H274.035L274.04 368.164C274.138 369.307 275.095 370.171 276.481 370.171Z" fill="#30404D"/>
<path d="M303.545 370.132C305.039 370.132 306.099 369.263 306.099 368.052V368.042C306.099 367.056 305.405 366.431 304.37 366.338V366.313C305.229 366.133 305.854 365.547 305.854 364.673V364.663C305.854 363.574 304.937 362.822 303.535 362.822C302.158 362.822 301.221 363.608 301.113 364.795L301.108 364.849H302.134L302.139 364.8C302.207 364.136 302.754 363.721 303.535 363.721C304.331 363.721 304.79 364.121 304.79 364.805V364.814C304.79 365.469 304.243 365.942 303.438 365.942H302.612V366.792H303.472C304.409 366.792 304.985 367.236 304.985 368.032V368.042C304.985 368.735 304.404 369.219 303.545 369.219C302.671 369.219 302.08 368.77 302.012 368.13L302.007 368.081H300.962L300.967 368.14C301.06 369.307 302.041 370.132 303.545 370.132ZM309.956 370.171C311.577 370.171 312.559 368.75 312.559 366.479V366.47C312.559 364.199 311.577 362.783 309.956 362.783C308.33 362.783 307.354 364.199 307.354 366.47V366.479C307.354 368.75 308.33 370.171 309.956 370.171ZM309.956 369.263C309.009 369.263 308.457 368.203 308.457 366.479V366.47C308.457 364.746 309.009 363.696 309.956 363.696C310.898 363.696 311.455 364.746 311.455 366.47V366.479C311.455 368.203 310.898 369.263 309.956 369.263ZM316.45 370.171C318.071 370.171 319.053 368.75 319.053 366.479V366.47C319.053 364.199 318.071 362.783 316.45 362.783C314.824 362.783 313.848 364.199 313.848 366.47V366.479C313.848 368.75 314.824 370.171 316.45 370.171ZM316.45 369.263C315.503 369.263 314.951 368.203 314.951 366.479V366.47C314.951 364.746 315.503 363.696 316.45 363.696C317.393 363.696 317.949 364.746 317.949 366.47V366.479C317.949 368.203 317.393 369.263 316.45 369.263Z" fill="#30404D"/>
<path d="M344.265 370.132C345.759 370.132 346.818 369.263 346.818 368.052V368.042C346.818 367.056 346.125 366.431 345.09 366.338V366.313C345.949 366.133 346.574 365.547 346.574 364.673V364.663C346.574 363.574 345.656 362.822 344.255 362.822C342.878 362.822 341.94 363.608 341.833 364.795L341.828 364.849H342.854L342.858 364.8C342.927 364.136 343.474 363.721 344.255 363.721C345.051 363.721 345.51 364.121 345.51 364.805V364.814C345.51 365.469 344.963 365.942 344.157 365.942H343.332V366.792H344.191C345.129 366.792 345.705 367.236 345.705 368.032V368.042C345.705 368.735 345.124 369.219 344.265 369.219C343.391 369.219 342.8 368.77 342.731 368.13L342.727 368.081H341.682L341.687 368.14C341.779 369.307 342.761 370.132 344.265 370.132ZM348.21 370H352.956V369.067H349.699V368.97L351.193 367.48C352.473 366.211 352.844 365.596 352.844 364.795V364.78C352.844 363.618 351.877 362.783 350.563 362.783C349.147 362.783 348.151 363.691 348.146 364.98L348.156 364.99H349.182L349.187 364.976C349.187 364.204 349.714 363.687 350.505 363.687C351.276 363.687 351.75 364.194 351.75 364.883V364.897C351.75 365.469 351.481 365.83 350.549 366.802L348.21 369.258V370ZM356.833 370.171C358.317 370.171 359.362 369.175 359.362 367.729V367.72C359.362 366.367 358.415 365.381 357.092 365.381C356.442 365.381 355.891 365.654 355.593 366.128H355.51L355.725 363.882H358.962V362.954H354.865L354.514 367.046H355.456C355.539 366.885 355.651 366.748 355.778 366.636C356.057 366.382 356.423 366.255 356.853 366.255C357.702 366.255 358.317 366.87 358.317 367.739V367.749C358.317 368.633 357.712 369.253 356.843 369.253C356.071 369.253 355.51 368.76 355.417 368.14L355.412 368.101H354.387L354.392 368.164C354.489 369.307 355.446 370.171 356.833 370.171Z" fill="#30404D"/>
<path d="M383.608 370.132C385.103 370.132 386.162 369.263 386.162 368.052V368.042C386.162 367.056 385.469 366.431 384.434 366.338V366.313C385.293 366.133 385.918 365.547 385.918 364.673V364.663C385.918 363.574 385 362.822 383.599 362.822C382.222 362.822 381.284 363.608 381.177 364.795L381.172 364.849H382.197L382.202 364.8C382.271 364.136 382.817 363.721 383.599 363.721C384.395 363.721 384.854 364.121 384.854 364.805V364.814C384.854 365.469 384.307 365.942 383.501 365.942H382.676V366.792H383.535C384.473 366.792 385.049 367.236 385.049 368.032V368.042C385.049 368.735 384.468 369.219 383.608 369.219C382.734 369.219 382.144 368.77 382.075 368.13L382.07 368.081H381.025L381.03 368.14C381.123 369.307 382.104 370.132 383.608 370.132ZM389.995 370.171C391.479 370.171 392.524 369.175 392.524 367.729V367.72C392.524 366.367 391.577 365.381 390.254 365.381C389.604 365.381 389.053 365.654 388.755 366.128H388.672L388.887 363.882H392.124V362.954H388.027L387.676 367.046H388.618C388.701 366.885 388.813 366.748 388.94 366.636C389.219 366.382 389.585 366.255 390.015 366.255C390.864 366.255 391.479 366.87 391.479 367.739V367.749C391.479 368.633 390.874 369.253 390.005 369.253C389.233 369.253 388.672 368.76 388.579 368.14L388.574 368.101H387.549L387.554 368.164C387.651 369.307 388.608 370.171 389.995 370.171ZM396.387 370.171C398.008 370.171 398.989 368.75 398.989 366.479V366.47C398.989 364.199 398.008 362.783 396.387 362.783C394.761 362.783 393.784 364.199 393.784 366.47V366.479C393.784 368.75 394.761 370.171 396.387 370.171ZM396.387 369.263C395.439 369.263 394.888 368.203 394.888 366.479V366.47C394.888 364.746 395.439 363.696 396.387 363.696C397.329 363.696 397.886 364.746 397.886 366.47V366.479C397.886 368.203 397.329 369.263 396.387 369.263Z" fill="#30404D"/>
<path d="M424.494 370.132C425.988 370.132 427.048 369.263 427.048 368.052V368.042C427.048 367.056 426.354 366.431 425.319 366.338V366.313C426.179 366.133 426.804 365.547 426.804 364.673V364.663C426.804 363.574 425.886 362.822 424.484 362.822C423.107 362.822 422.17 363.608 422.062 364.795L422.058 364.849H423.083L423.088 364.8C423.156 364.136 423.703 363.721 424.484 363.721C425.28 363.721 425.739 364.121 425.739 364.805V364.814C425.739 365.469 425.192 365.942 424.387 365.942H423.562V366.792H424.421C425.358 366.792 425.935 367.236 425.935 368.032V368.042C425.935 368.735 425.354 369.219 424.494 369.219C423.62 369.219 423.029 368.77 422.961 368.13L422.956 368.081H421.911L421.916 368.14C422.009 369.307 422.99 370.132 424.494 370.132ZM428.737 370H429.885L432.951 363.901V362.954H428.151V363.877H431.843V363.955L428.737 370ZM436.604 370.171C438.088 370.171 439.133 369.175 439.133 367.729V367.72C439.133 366.367 438.186 365.381 436.862 365.381C436.213 365.381 435.661 365.654 435.363 366.128H435.28L435.495 363.882H438.732V362.954H434.636L434.284 367.046H435.227C435.31 366.885 435.422 366.748 435.549 366.636C435.827 366.382 436.193 366.255 436.623 366.255C437.473 366.255 438.088 366.87 438.088 367.739V367.749C438.088 368.633 437.482 369.253 436.613 369.253C435.842 369.253 435.28 368.76 435.188 368.14L435.183 368.101H434.157L434.162 368.164C434.26 369.307 435.217 370.171 436.604 370.171Z" fill="#30404D"/>
<path d="M464.204 370H465.259V368.599H466.23V367.671H465.259V362.954H463.701C462.729 364.414 461.694 366.079 460.767 367.671V368.599H464.204V370ZM461.816 367.69V367.622C462.539 366.387 463.398 365.015 464.155 363.877H464.219V367.69H461.816ZM470.049 370.171C471.67 370.171 472.651 368.75 472.651 366.479V366.47C472.651 364.199 471.67 362.783 470.049 362.783C468.423 362.783 467.446 364.199 467.446 366.47V366.479C467.446 368.75 468.423 370.171 470.049 370.171ZM470.049 369.263C469.102 369.263 468.55 368.203 468.55 366.479V366.47C468.55 364.746 469.102 363.696 470.049 363.696C470.991 363.696 471.548 364.746 471.548 366.47V366.479C471.548 368.203 470.991 369.263 470.049 369.263ZM476.543 370.171C478.164 370.171 479.146 368.75 479.146 366.479V366.47C479.146 364.199 478.164 362.783 476.543 362.783C474.917 362.783 473.94 364.199 473.94 366.47V366.479C473.94 368.75 474.917 370.171 476.543 370.171ZM476.543 369.263C475.596 369.263 475.044 368.203 475.044 366.479V366.47C475.044 364.746 475.596 363.696 476.543 363.696C477.485 363.696 478.042 364.746 478.042 366.47V366.479C478.042 368.203 477.485 369.263 476.543 369.263Z" fill="#30404D"/>
<path d="M504.434 370H505.488V368.599H506.46V367.671H505.488V362.954H503.931C502.959 364.414 501.924 366.079 500.996 367.671V368.599H504.434V370ZM502.046 367.69V367.622C502.769 366.387 503.628 365.015 504.385 363.877H504.448V367.69H502.046ZM507.793 370H512.539V369.067H509.282V368.97L510.776 367.48C512.056 366.211 512.427 365.596 512.427 364.795V364.78C512.427 363.618 511.46 362.783 510.146 362.783C508.73 362.783 507.734 363.691 507.729 364.98L507.739 364.99H508.765L508.77 364.976C508.77 364.204 509.297 363.687 510.088 363.687C510.859 363.687 511.333 364.194 511.333 364.883V364.897C511.333 365.469 511.064 365.83 510.132 366.802L507.793 369.258V370ZM516.416 370.171C517.9 370.171 518.945 369.175 518.945 367.729V367.72C518.945 366.367 517.998 365.381 516.675 365.381C516.025 365.381 515.474 365.654 515.176 366.128H515.093L515.308 363.882H518.545V362.954H514.448L514.097 367.046H515.039C515.122 366.885 515.234 366.748 515.361 366.636C515.64 366.382 516.006 366.255 516.436 366.255C517.285 366.255 517.9 366.87 517.9 367.739V367.749C517.9 368.633 517.295 369.253 516.426 369.253C515.654 369.253 515.093 368.76 515 368.14L514.995 368.101H513.97L513.975 368.164C514.072 369.307 515.029 370.171 516.416 370.171Z" fill="#30404D"/>
<path d="M544.277 370H545.332V368.599H546.304V367.671H545.332V362.954H543.774C542.803 364.414 541.768 366.079 540.84 367.671V368.599H544.277V370ZM541.89 367.69V367.622C542.612 366.387 543.472 365.015 544.229 363.877H544.292V367.69H541.89ZM550.078 370.171C551.562 370.171 552.607 369.175 552.607 367.729V367.72C552.607 366.367 551.66 365.381 550.337 365.381C549.688 365.381 549.136 365.654 548.838 366.128H548.755L548.97 363.882H552.207V362.954H548.11L547.759 367.046H548.701C548.784 366.885 548.896 366.748 549.023 366.636C549.302 366.382 549.668 366.255 550.098 366.255C550.947 366.255 551.562 366.87 551.562 367.739V367.749C551.562 368.633 550.957 369.253 550.088 369.253C549.316 369.253 548.755 368.76 548.662 368.14L548.657 368.101H547.632L547.637 368.164C547.734 369.307 548.691 370.171 550.078 370.171ZM556.47 370.171C558.091 370.171 559.072 368.75 559.072 366.479V366.47C559.072 364.199 558.091 362.783 556.47 362.783C554.844 362.783 553.867 364.199 553.867 366.47V366.479C553.867 368.75 554.844 370.171 556.47 370.171ZM556.47 369.263C555.522 369.263 554.971 368.203 554.971 366.479V366.47C554.971 364.746 555.522 363.696 556.47 363.696C557.412 363.696 557.969 364.746 557.969 366.47V366.479C557.969 368.203 557.412 369.263 556.47 369.263Z" fill="#30404D"/>
<path d="M585.163 370H586.218V368.599H587.189V367.671H586.218V362.954H584.66C583.688 364.414 582.653 366.079 581.726 367.671V368.599H585.163V370ZM582.775 367.69V367.622C583.498 366.387 584.357 365.015 585.114 363.877H585.178V367.69H582.775ZM588.82 370H589.968L593.034 363.901V362.954H588.234V363.877H591.926V363.955L588.82 370ZM596.687 370.171C598.171 370.171 599.216 369.175 599.216 367.729V367.72C599.216 366.367 598.269 365.381 596.945 365.381C596.296 365.381 595.744 365.654 595.446 366.128H595.363L595.578 363.882H598.815V362.954H594.719L594.367 367.046H595.31C595.393 366.885 595.505 366.748 595.632 366.636C595.91 366.382 596.276 366.255 596.706 366.255C597.556 366.255 598.171 366.87 598.171 367.739V367.749C598.171 368.633 597.565 369.253 596.696 369.253C595.925 369.253 595.363 368.76 595.271 368.14L595.266 368.101H594.24L594.245 368.164C594.343 369.307 595.3 370.171 596.687 370.171Z" fill="#30404D"/>
<path d="M623.535 370.171C625.02 370.171 626.064 369.175 626.064 367.729V367.72C626.064 366.367 625.117 365.381 623.794 365.381C623.145 365.381 622.593 365.654 622.295 366.128H622.212L622.427 363.882H625.664V362.954H621.567L621.216 367.046H622.158C622.241 366.885 622.354 366.748 622.48 366.636C622.759 366.382 623.125 366.255 623.555 366.255C624.404 366.255 625.02 366.87 625.02 367.739V367.749C625.02 368.633 624.414 369.253 623.545 369.253C622.773 369.253 622.212 368.76 622.119 368.14L622.114 368.101H621.089L621.094 368.164C621.191 369.307 622.148 370.171 623.535 370.171ZM629.927 370.171C631.548 370.171 632.529 368.75 632.529 366.479V366.47C632.529 364.199 631.548 362.783 629.927 362.783C628.301 362.783 627.324 364.199 627.324 366.47V366.479C627.324 368.75 628.301 370.171 629.927 370.171ZM629.927 369.263C628.979 369.263 628.428 368.203 628.428 366.479V366.47C628.428 364.746 628.979 363.696 629.927 363.696C630.869 363.696 631.426 364.746 631.426 366.47V366.479C631.426 368.203 630.869 369.263 629.927 369.263ZM636.421 370.171C638.042 370.171 639.023 368.75 639.023 366.479V366.47C639.023 364.199 638.042 362.783 636.421 362.783C634.795 362.783 633.818 364.199 633.818 366.47V366.479C633.818 368.75 634.795 370.171 636.421 370.171ZM636.421 369.263C635.474 369.263 634.922 368.203 634.922 366.479V366.47C634.922 364.746 635.474 363.696 636.421 363.696C637.363 363.696 637.92 364.746 637.92 366.47V366.479C637.92 368.203 637.363 369.263 636.421 369.263Z" fill="#30404D"/>
</g>
<g clip-path="url(#clip23_189_9515)">
<g filter="url(#filter4_ddd_189_9515)">
<rect x="24" y="356" width="65" height="20" fill="white"/>
<g clip-path="url(#clip24_189_9515)">
<path d="M32.5479 369.5H35.0918C37.1914 369.5 38.4072 368.201 38.4072 365.965V365.955C38.4072 363.743 37.1816 362.454 35.0918 362.454H32.5479V369.5ZM33.6416 368.558V363.396H34.9697C36.4297 363.396 37.2939 364.349 37.2939 365.97V365.979C37.2939 367.615 36.4443 368.558 34.9697 368.558H33.6416ZM42.0156 369.603C43.5684 369.603 44.5205 368.562 44.5205 366.854V366.844C44.5205 365.135 43.5635 364.095 42.0156 364.095C40.4629 364.095 39.5059 365.14 39.5059 366.844V366.854C39.5059 368.562 40.458 369.603 42.0156 369.603ZM42.0156 368.719C41.1025 368.719 40.5898 368.03 40.5898 366.854V366.844C40.5898 365.667 41.1025 364.979 42.0156 364.979C42.9238 364.979 43.4414 365.667 43.4414 366.844V366.854C43.4414 368.025 42.9238 368.719 42.0156 368.719ZM45.834 369.5H46.8936V362.117H45.834V369.5ZM48.5195 369.5H49.5791V362.117H48.5195V369.5ZM52.6113 369.588C53.3145 369.588 53.8711 369.285 54.1836 368.748H54.2666V369.5H55.3164V365.872C55.3164 364.759 54.5645 364.095 53.2314 364.095C52.0254 364.095 51.1904 364.676 51.0635 365.545L51.0586 365.579H52.0791L52.084 365.56C52.2109 365.184 52.5967 364.969 53.1826 364.969C53.9004 364.969 54.2666 365.291 54.2666 365.872V366.341L52.8311 366.424C51.5664 366.502 50.8535 367.054 50.8535 368.001V368.011C50.8535 368.973 51.6006 369.588 52.6113 369.588ZM51.9082 367.967V367.957C51.9082 367.479 52.2402 367.215 52.9727 367.171L54.2666 367.088V367.542C54.2666 368.226 53.6855 368.743 52.8945 368.743C52.3232 368.743 51.9082 368.455 51.9082 367.967ZM56.8105 369.5H57.8701V366.331C57.8701 365.564 58.4219 365.066 59.2324 365.066C59.4326 365.066 59.6133 365.091 59.8037 365.13V364.153C59.6963 364.129 59.5107 364.104 59.3398 364.104C58.6318 364.104 58.1387 364.437 57.9482 364.998H57.8701V364.197H56.8105V369.5ZM62.6357 369.603C63.8955 369.603 64.833 368.934 64.833 367.952V367.942C64.833 367.176 64.3447 366.741 63.3242 366.502L62.4844 366.312C61.8887 366.17 61.6445 365.965 61.6445 365.633V365.623C61.6445 365.198 62.0645 364.91 62.6455 364.91C63.2412 364.91 63.6172 365.188 63.7197 365.56V365.569H64.7305V365.564C64.6377 364.7 63.8613 364.095 62.6504 364.095C61.4492 364.095 60.5898 364.759 60.5898 365.682V365.687C60.5898 366.463 61.0537 366.917 62.0547 367.146L62.8994 367.342C63.5146 367.483 63.7637 367.708 63.7637 368.04V368.05C63.7637 368.484 63.3096 368.782 62.6553 368.782C62.0254 368.782 61.6396 368.514 61.5078 368.113L61.5029 368.108H60.4434V368.113C60.5459 369.002 61.3564 369.603 62.6357 369.603Z" fill="#30404D"/>
<path fill-rule="evenodd" clip-rule="evenodd" d="M77.5 364.5C77.5 364.22 77.28 364 77 364H70C69.72 364 69.5 364.22 69.5 364.5C69.5 364.63 69.55 364.74 69.63 364.83L73.13 368.83C73.22 368.93 73.35 369 73.5 369C73.65 369 73.78 368.93 73.87 368.83L77.37 364.83C77.45 364.74 77.5 364.63 77.5 364.5Z" fill="#5C7080"/>
</g>
<rect x="24.5" y="356.5" width="64" height="19" stroke="#CED9E0"/>
</g>
</g>
</g>
<rect x="24.5" y="356.5" width="627" height="19" stroke="#CED9E0"/>
</g>
<rect x="24.5" y="16.5" width="627" height="359" rx="2.5" stroke="#D8E1E8"/>
</g>
<defs>
<filter id="filter0_ddd_189_9515" x="0" y="0" width="676" height="408" filterUnits="userSpaceOnUse" color-interpolation-filters="sRGB">
<feFlood flood-opacity="0" result="BackgroundImageFix"/>
<feColorMatrix in="SourceAlpha" type="matrix" values="0 0 0 0 0 0 0 0 0 0 0 0 0 0 0 0 0 0 127 0" result="hardAlpha"/>
<feOffset dy="8"/>
<feGaussianBlur stdDeviation="12"/>
<feColorMatrix type="matrix" values="0 0 0 0 0.0627451 0 0 0 0 0.0862745 0 0 0 0 0.101961 0 0 0 0.2 0"/>
<feBlend mode="normal" in2="BackgroundImageFix" result="effect1_dropShadow_189_9515"/>
<feColorMatrix in="SourceAlpha" type="matrix" values="0 0 0 0 0 0 0 0 0 0 0 0 0 0 0 0 0 0 127 0" result="hardAlpha"/>
<feOffset dy="2"/>
<feGaussianBlur stdDeviation="2"/>
<feColorMatrix type="matrix" values="0 0 0 0 0.0627451 0 0 0 0 0.0862745 0 0 0 0 0.101961 0 0 0 0.2 0"/>
<feBlend mode="normal" in2="effect1_dropShadow_189_9515" result="effect2_dropShadow_189_9515"/>
<feColorMatrix in="SourceAlpha" type="matrix" values="0 0 0 0 0 0 0 0 0 0 0 0 0 0 0 0 0 0 127 0" result="hardAlpha"/>
<feOffset/>
<feColorMatrix type="matrix" values="0 0 0 0 0.0627451 0 0 0 0 0.0862745 0 0 0 0 0.101961 0 0 0 0.1 0"/>
<feBlend mode="normal" in2="effect2_dropShadow_189_9515" result="effect3_dropShadow_189_9515"/>
<feBlend mode="normal" in="SourceGraphic" in2="effect3_dropShadow_189_9515" result="shape"/>
</filter>
<filter id="filter1_di_189_9515" x="550" y="24" width="93" height="31" filterUnits="userSpaceOnUse" color-interpolation-filters="sRGB">
<feFlood flood-opacity="0" result="BackgroundImageFix"/>
<feColorMatrix in="SourceAlpha" type="matrix" values="0 0 0 0 0 0 0 0 0 0 0 0 0 0 0 0 0 0 127 0" result="hardAlpha"/>
<feOffset/>
<feColorMatrix type="matrix" values="0 0 0 0 0.0627451 0 0 0 0 0.0862745 0 0 0 0 0.101961 0 0 0 0.15 0"/>
<feBlend mode="normal" in2="BackgroundImageFix" result="effect1_dropShadow_189_9515"/>
<feBlend mode="normal" in="SourceGraphic" in2="effect1_dropShadow_189_9515" result="shape"/>
<feColorMatrix in="SourceAlpha" type="matrix" values="0 0 0 0 0 0 0 0 0 0 0 0 0 0 0 0 0 0 127 0" result="hardAlpha"/>
<feOffset dy="-1"/>
<feGaussianBlur stdDeviation="0.5"/>
<feComposite in2="hardAlpha" operator="arithmetic" k2="-1" k3="1"/>
<feColorMatrix type="matrix" values="0 0 0 0 0.0627451 0 0 0 0 0.0862745 0 0 0 0 0.101961 0 0 0 0.1 0"/>
<feBlend mode="normal" in2="shape" result="effect2_innerShadow_189_9515"/>
</filter>
<filter id="filter2_ddd_189_9515" x="325" y="195" width="127" height="83" filterUnits="userSpaceOnUse" color-interpolation-filters="sRGB">
<feFlood flood-opacity="0" result="BackgroundImageFix"/>
<feColorMatrix in="SourceAlpha" type="matrix" values="0 0 0 0 0 0 0 0 0 0 0 0 0 0 0 0 0 0 127 0" result="hardAlpha"/>
<feOffset dy="2"/>
<feGaussianBlur stdDeviation="3"/>
<feColorMatrix type="matrix" values="0 0 0 0 0.0627451 0 0 0 0 0.0862745 0 0 0 0 0.101961 0 0 0 0.2 0"/>
<feBlend mode="normal" in2="BackgroundImageFix" result="effect1_dropShadow_189_9515"/>
<feColorMatrix in="SourceAlpha" type="matrix" values="0 0 0 0 0 0 0 0 0 0 0 0 0 0 0 0 0 0 127 0" result="hardAlpha"/>
<feOffset dy="1"/>
<feGaussianBlur stdDeviation="0.5"/>
<feColorMatrix type="matrix" values="0 0 0 0 0.0627451 0 0 0 0 0.0862745 0 0 0 0 0.101961 0 0 0 0.2 0"/>
<feBlend mode="normal" in2="effect1_dropShadow_189_9515" result="effect2_dropShadow_189_9515"/>
<feColorMatrix in="SourceAlpha" type="matrix" values="0 0 0 0 0 0 0 0 0 0 0 0 0 0 0 0 0 0 127 0" result="hardAlpha"/>
<feOffset/>
<feColorMatrix type="matrix" values="0 0 0 0 0.0627451 0 0 0 0 0.0862745 0 0 0 0 0.101961 0 0 0 0.1 0"/>
<feBlend mode="normal" in2="effect2_dropShadow_189_9515" result="effect3_dropShadow_189_9515"/>
<feBlend mode="normal" in="SourceGraphic" in2="effect3_dropShadow_189_9515" result="shape"/>
</filter>
<filter id="filter3_d_189_9515" x="325.625" y="187.625" width="19.0586" height="20.0181" filterUnits="userSpaceOnUse" color-interpolation-filters="sRGB">
<feFlood flood-opacity="0" result="BackgroundImageFix"/>
<feColorMatrix in="SourceAlpha" type="matrix" values="0 0 0 0 0 0 0 0 0 0 0 0 0 0 0 0 0 0 127 0" result="hardAlpha"/>
<feOffset dy="1"/>
<feGaussianBlur stdDeviation="1"/>
<feColorMatrix type="matrix" values="0 0 0 0 0.0627451 0 0 0 0 0.0862745 0 0 0 0 0.101961 0 0 0 0.4 0"/>
<feBlend mode="normal" in2="BackgroundImageFix" result="effect1_dropShadow_189_9515"/>
<feBlend mode="normal" in="SourceGraphic" in2="effect1_dropShadow_189_9515" result="shape"/>
</filter>
<filter id="filter4_ddd_189_9515" x="18" y="352" width="77" height="32" filterUnits="userSpaceOnUse" color-interpolation-filters="sRGB">
<feFlood flood-opacity="0" result="BackgroundImageFix"/>
<feColorMatrix in="SourceAlpha" type="matrix" values="0 0 0 0 0 0 0 0 0 0 0 0 0 0 0 0 0 0 127 0" result="hardAlpha"/>
<feOffset dy="2"/>
<feGaussianBlur stdDeviation="3"/>
<feColorMatrix type="matrix" values="0 0 0 0 0.0627451 0 0 0 0 0.0862745 0 0 0 0 0.101961 0 0 0 0.2 0"/>
<feBlend mode="normal" in2="BackgroundImageFix" result="effect1_dropShadow_189_9515"/>
<feColorMatrix in="SourceAlpha" type="matrix" values="0 0 0 0 0 0 0 0 0 0 0 0 0 0 0 0 0 0 127 0" result="hardAlpha"/>
<feOffset dy="1"/>
<feGaussianBlur stdDeviation="0.5"/>
<feColorMatrix type="matrix" values="0 0 0 0 0.0627451 0 0 0 0 0.0862745 0 0 0 0 0.101961 0 0 0 0.2 0"/>
<feBlend mode="normal" in2="effect1_dropShadow_189_9515" result="effect2_dropShadow_189_9515"/>
<feColorMatrix in="SourceAlpha" type="matrix" values="0 0 0 0 0 0 0 0 0 0 0 0 0 0 0 0 0 0 127 0" result="hardAlpha"/>
<feOffset/>
<feColorMatrix type="matrix" values="0 0 0 0 0.0627451 0 0 0 0 0.0862745 0 0 0 0 0.101961 0 0 0 0.1 0"/>
<feBlend mode="normal" in2="effect2_dropShadow_189_9515" result="effect3_dropShadow_189_9515"/>
<feBlend mode="normal" in="SourceGraphic" in2="effect3_dropShadow_189_9515" result="shape"/>
</filter>
<linearGradient id="paint0_linear_189_9515" x1="550" y1="25" x2="550" y2="55" gradientUnits="userSpaceOnUse">
<stop stop-color="white"/>
<stop offset="1" stop-color="white" stop-opacity="0.01"/>
</linearGradient>
<clipPath id="clip0_189_9515">
<rect x="24" y="16" width="628" height="360" rx="3" fill="white"/>
</clipPath>
<clipPath id="clip1_189_9515">
<rect width="800" height="308" fill="white" transform="translate(-9 49)"/>
</clipPath>
<clipPath id="clip2_189_9515">
<rect width="800" height="28" fill="white" transform="translate(-9 49)"/>
</clipPath>
<clipPath id="clip3_189_9515">
<rect width="800" height="28" fill="white" transform="translate(-9 77)"/>
</clipPath>
<clipPath id="clip4_189_9515">
<rect width="800" height="28" fill="white" transform="translate(-9 105)"/>
</clipPath>
<clipPath id="clip5_189_9515">
<rect width="800" height="28" fill="white" transform="translate(-9 133)"/>
</clipPath>
<clipPath id="clip6_189_9515">
<rect width="800" height="28" fill="white" transform="translate(-9 161)"/>
</clipPath>
<clipPath id="clip7_189_9515">
<rect width="800" height="28" fill="white" transform="translate(-9 189)"/>
</clipPath>
<clipPath id="clip8_189_9515">
<rect width="800" height="28" fill="white" transform="translate(-9 217)"/>
</clipPath>
<clipPath id="clip9_189_9515">
<rect width="800" height="28" fill="white" transform="translate(-9 245)"/>
</clipPath>
<clipPath id="clip10_189_9515">
<rect width="800" height="28" fill="white" transform="translate(-9 273)"/>
</clipPath>
<clipPath id="clip11_189_9515">
<rect width="800" height="28" fill="white" transform="translate(-9 301)"/>
</clipPath>
<clipPath id="clip12_189_9515">
<rect width="800" height="28" fill="white" transform="translate(-9 329)"/>
</clipPath>
<clipPath id="clip13_189_9515">
<rect x="24" y="63" width="65" height="301" fill="white"/>
</clipPath>
<clipPath id="clip14_189_9515">
<rect width="17" height="264" fill="white" transform="translate(66 71)"/>
</clipPath>
<clipPath id="clip15_189_9515">
<rect width="5" height="460" fill="white" transform="translate(84 70)"/>
</clipPath>
<clipPath id="clip16_189_9515">
<rect width="222" height="19" fill="white" transform="translate(36 31)"/>
</clipPath>
<clipPath id="clip17_189_9515">
<rect width="77" height="18" fill="white" transform="translate(558 31)"/>
</clipPath>
<clipPath id="clip18_189_9515">
<rect width="89" height="17" fill="white" transform="translate(336 204)"/>
</clipPath>
<clipPath id="clip19_189_9515">
<rect width="88" height="17" fill="white" transform="translate(336 226)"/>
</clipPath>
<clipPath id="clip20_189_9515">
<rect width="98" height="17" fill="white" transform="translate(336 248)"/>
</clipPath>
<clipPath id="clip21_189_9515">
<rect x="24" y="356" width="628" height="20" fill="white"/>
</clipPath>
<clipPath id="clip22_189_9515">
<rect width="1472" height="15" fill="white" transform="translate(-26 359)"/>
</clipPath>
<clipPath id="clip23_189_9515">
<rect width="90" height="20" fill="white" transform="translate(24 356)"/>
</clipPath>
<clipPath id="clip24_189_9515">
<rect width="50" height="16" fill="white" transform="translate(31.5 358)"/>
</clipPath>
</defs>
</svg>
